<svg width="105" height="40" viewBox="0 0 105 40" fill="none" xmlns="http://www.w3.org/2000/svg">
<rect x="0.5" y="0.5" width="104" height="39" rx="7.5" stroke="white" stroke-opacity="0.5"/>
<path d="M45.064 29.1812C44.196 25.9612 43.16 22.6712 41.9 19.4092H40.472C39.31 22.4752 38.26 25.7092 37.322 29.1812H38.624C38.834 28.3552 39.072 27.4452 39.31 26.5912H42.978C43.216 27.4452 43.44 28.3552 43.65 29.1812H45.064ZM39.576 25.5832C39.954 24.3092 40.374 22.9512 40.794 21.6772C40.906 21.3692 41.032 20.9772 41.13 20.6552H41.144C41.242 20.9772 41.354 21.3552 41.466 21.6772C41.9 22.9792 42.334 24.3232 42.712 25.5832H39.576ZM47.6069 32.0932V29.1252C48.0269 29.2092 48.4889 29.2792 48.9929 29.2792C51.2469 29.2792 52.2269 27.4732 52.2269 25.3592C52.2269 23.4552 51.4989 21.8872 49.7209 21.8872C48.7689 21.8872 48.1109 22.2932 47.4389 23.1192L47.3409 22.0412H46.3889V32.0932H47.6069ZM47.6069 24.1692C48.3489 23.2032 48.8389 22.8952 49.4829 22.8952C50.6309 22.8952 50.9249 24.1692 50.9249 25.4572C50.9249 27.2492 50.3089 28.3132 49.0209 28.3132C48.4609 28.3132 48.0129 28.2012 47.6069 28.0192V24.1692ZM55.058 32.0932V29.1252C55.478 29.2092 55.94 29.2792 56.444 29.2792C58.698 29.2792 59.678 27.4732 59.678 25.3592C59.678 23.4552 58.95 21.8872 57.172 21.8872C56.22 21.8872 55.562 22.2932 54.89 23.1192L54.792 22.0412H53.84V32.0932H55.058ZM55.058 24.1692C55.8 23.2032 56.29 22.8952 56.934 22.8952C58.082 22.8952 58.376 24.1692 58.376 25.4572C58.376 27.2492 57.76 28.3132 56.472 28.3132C55.912 28.3132 55.464 28.2012 55.058 28.0192V24.1692ZM64.3035 29.0412C64.9615 29.2372 65.6055 29.3492 66.2775 29.3492C68.2375 29.3492 69.4975 28.2992 69.4975 26.4792C69.4975 25.1632 68.7415 24.4772 67.3975 23.7072C66.3895 23.1192 65.7175 22.6852 65.7175 21.7052C65.7175 20.9352 66.2215 20.2772 67.2435 20.2772C67.7475 20.2772 68.2795 20.3752 68.7415 20.5292L68.9375 19.5072C68.4895 19.3392 67.8315 19.2412 67.2715 19.2412C65.5635 19.2412 64.3735 20.2632 64.3735 21.8592C64.3735 23.1612 65.0455 23.8612 66.3615 24.5892C67.4675 25.2332 68.1395 25.6532 68.1395 26.6472C68.1395 27.6132 67.5515 28.2852 66.3615 28.2852C65.7035 28.2852 65.0875 28.1592 64.4855 27.9492L64.3035 29.0412ZM74.0499 28.2852H73.4899C72.8179 28.2852 72.4959 28.1592 72.4959 27.1232V22.9932H74.0499V22.0412H72.4959V19.9692H71.5579L71.2639 22.0412H70.2839V22.9932H71.2779V27.4312C71.2779 28.8732 71.9639 29.2932 72.9719 29.2932C73.3639 29.2932 73.7839 29.2372 74.0499 29.1672V28.2852ZM78.1026 29.3492C80.1606 29.3492 81.3226 27.8512 81.3226 25.5552C81.3226 23.2872 80.2026 21.8872 78.2146 21.8872C76.1566 21.8872 74.9806 23.3852 74.9806 25.6952C74.9806 27.9492 76.1006 29.3492 78.1026 29.3492ZM78.1726 28.3412C76.8426 28.3412 76.2686 27.1932 76.2686 25.5412C76.2686 23.9872 76.8846 22.8812 78.1306 22.8812C79.4606 22.8812 80.0346 24.0432 80.0346 25.6952C80.0346 27.2492 79.4326 28.3412 78.1726 28.3412ZM84.1381 29.1812V24.5052C84.8941 23.4552 85.2721 23.0212 85.7061 23.0212C85.8881 23.0212 86.1681 23.0772 86.3641 23.1472L86.5461 22.0132C86.2661 21.9152 86.0281 21.8872 85.7481 21.8872C85.1041 21.8872 84.6841 22.3212 83.9981 23.3572L83.8721 22.0412H82.9201V29.1812H84.1381ZM92.5105 28.0192C91.8665 28.2152 91.2505 28.3412 90.4385 28.3412C88.9265 28.3412 88.4505 27.3752 88.4505 25.7792H92.8465C92.8465 25.5552 92.8605 25.2192 92.8605 25.0792C92.8605 23.2032 92.0765 21.8872 90.2145 21.8872C88.2405 21.8872 87.1625 23.3432 87.1625 25.6532C87.1625 28.1032 88.1565 29.3492 90.2425 29.3492C91.1525 29.3492 91.9785 29.1952 92.6645 28.9572L92.5105 28.0192ZM88.4365 24.9112C88.4785 23.9032 88.9685 22.8112 90.1445 22.8112C91.1385 22.8112 91.6705 23.6232 91.6285 24.9112H88.4365Z" fill="white"/>
<path d="M25.769 19.476C25.7797 18.6425 26.0014 17.8252 26.4135 17.1003C26.8255 16.3753 27.4145 15.7662 28.1256 15.3296C27.6738 14.6853 27.0779 14.1551 26.385 13.7811C25.6922 13.407 24.9216 13.1995 24.1344 13.1749C22.4552 12.9989 20.8272 14.1783 19.9715 14.1783C19.0992 14.1783 17.7817 13.1924 16.363 13.2215C15.4453 13.2511 14.551 13.5176 13.7671 13.995C12.9832 14.4724 12.3365 15.1445 11.8901 15.9457C9.95607 19.2895 11.3987 24.2038 13.2513 26.9067C14.1782 28.2302 15.2615 29.7087 16.6789 29.6562C18.066 29.5988 18.584 28.773 20.2583 28.773C21.9171 28.773 22.4031 29.6562 23.8493 29.6229C25.3377 29.5988 26.2754 28.2935 27.1698 26.9574C27.8358 26.0143 28.3483 24.9721 28.6882 23.8691C27.8235 23.5039 27.0856 22.8926 26.5665 22.1113C26.0474 21.3301 25.77 20.4136 25.769 19.476Z" fill="white"/>
<path d="M23.0373 11.3973C23.8488 10.4244 24.2487 9.17396 24.1518 7.91144C22.912 8.04148 21.7668 8.63324 20.9443 9.5688C20.5421 10.0258 20.2341 10.5576 20.0379 11.1335C19.8416 11.7095 19.761 12.3185 19.8006 12.9256C20.4207 12.932 21.0342 12.7978 21.5949 12.533C22.1555 12.2683 22.6487 11.88 23.0373 11.3973Z" fill="white"/>
<path d="M38.32 15.0448C38.73 15.2048 39.29 15.2848 39.8 15.2848C41.42 15.2848 42.31 14.5048 42.31 13.2048C42.31 12.2548 41.73 11.6248 40.89 11.5148V11.4948C41.64 11.2648 42.12 10.6348 42.12 9.82482C42.12 8.78482 41.44 8.09482 40.18 8.09482C39.56 8.09482 38.93 8.24482 38.45 8.47482L38.62 9.14482C39.04 8.93482 39.52 8.83482 39.98 8.83482C40.79 8.83482 41.16 9.28482 41.16 9.93482C41.16 10.6348 40.6 11.2048 39.62 11.2048H39.11V11.9248H39.66C40.47 11.9248 41.33 12.2148 41.33 13.2348C41.33 14.0348 40.85 14.5548 39.75 14.5548C39.32 14.5548 38.87 14.4948 38.46 14.3648L38.32 15.0448ZM46.9161 15.1948V11.6648C46.9161 10.7348 46.4661 9.98482 45.1361 9.98482C44.5661 9.98482 43.9661 10.1048 43.4861 10.3048L43.6561 10.9748C44.0861 10.7848 44.5661 10.6748 44.9961 10.6748C45.7961 10.6748 46.0561 11.0548 46.0561 11.8348V12.2348H45.3161C44.0261 12.2348 43.1461 12.7348 43.1461 13.8248C43.1461 14.7748 43.7461 15.3148 44.6961 15.3148C45.3161 15.3148 45.7661 15.0448 46.1661 14.6448L46.2361 15.1948H46.9161ZM46.0561 13.9948C45.6961 14.3648 45.3461 14.6348 44.8661 14.6348C44.3261 14.6348 44.0461 14.3048 44.0461 13.7848C44.0461 13.1948 44.4461 12.8548 45.2761 12.8548H46.0561V13.9948ZM49.2091 15.1948V10.8348H50.9491V10.0948H48.3391V15.1948H49.2091ZM52.6564 17.2748V15.1548C52.9564 15.2148 53.2864 15.2648 53.6464 15.2648C55.2564 15.2648 55.9564 13.9748 55.9564 12.4648C55.9564 11.1048 55.4364 9.98482 54.1664 9.98482C53.4864 9.98482 53.0164 10.2748 52.5364 10.8648L52.4664 10.0948H51.7864V17.2748H52.6564ZM52.6564 11.6148C53.1864 10.9248 53.5364 10.7048 53.9964 10.7048C54.8164 10.7048 55.0264 11.6148 55.0264 12.5348C55.0264 13.8148 54.5864 14.5748 53.6664 14.5748C53.2664 14.5748 52.9464 14.4948 52.6564 14.3648V11.6148ZM56.6191 17.2848C56.7791 17.3348 56.9791 17.3748 57.1991 17.3748C57.9091 17.3748 58.3991 16.9148 59.1391 15.1948C59.6391 14.0548 60.1491 12.3948 60.6891 10.0948H59.8191C59.5991 11.2548 59.2991 12.4548 58.9591 13.5448C58.8891 13.7748 58.8091 14.0348 58.7391 14.2748H58.7291C58.6591 14.0448 58.5891 13.7748 58.5091 13.5448C58.1391 12.4448 57.7991 11.3248 57.5091 10.0948H56.5791C57.0091 11.8948 57.6691 13.7748 58.2491 15.2048C57.7591 16.3448 57.4891 16.6348 57.1491 16.6348H56.6491L56.6191 17.2848ZM61.1909 15.0848C61.5809 15.2148 62.0709 15.2848 62.5109 15.2848C63.8809 15.2848 64.7009 14.7248 64.7009 13.6948C64.7009 13.0048 64.2109 12.5748 63.5709 12.4848V12.4748C64.1109 12.3248 64.5309 11.8548 64.5309 11.2448C64.5309 10.4848 63.9409 9.97482 62.8109 9.97482C62.2909 9.97482 61.7509 10.0748 61.3209 10.2548L61.4409 10.8748C61.8009 10.7148 62.2009 10.6448 62.5909 10.6448C63.3109 10.6448 63.6209 10.9348 63.6209 11.3648C63.6209 11.8748 63.2009 12.2248 62.3109 12.2248H61.9309V12.8648H62.3509C63.0409 12.8648 63.7709 13.0348 63.7709 13.7348C63.7709 14.2848 63.3709 14.6148 62.4809 14.6148C62.0909 14.6148 61.6909 14.5648 61.3109 14.4548L61.1909 15.0848ZM69.8289 15.1948V10.0948H69.0989L67.2089 12.9448L66.6789 13.8448L66.7189 12.7648V10.0948H65.8489V15.1948H66.5889L68.4689 12.3548L69.0089 11.4448L68.9589 12.5248V15.1948H69.8289ZM72.8688 15.1948V10.8348H74.2288V10.0948H70.6388V10.8348H71.9988V15.1948H72.8688ZM78.4414 14.3648C77.9814 14.5048 77.5414 14.5948 76.9614 14.5948C75.8814 14.5948 75.5414 13.9048 75.5414 12.7648H78.6814C78.6814 12.6048 78.6914 12.3648 78.6914 12.2648C78.6914 10.9248 78.1314 9.98482 76.8014 9.98482C75.3914 9.98482 74.6214 11.0248 74.6214 12.6748C74.6214 14.4248 75.3314 15.3148 76.8214 15.3148C77.4714 15.3148 78.0614 15.2048 78.5514 15.0348L78.4414 14.3648ZM75.5314 12.1448C75.5614 11.4248 75.9114 10.6448 76.7514 10.6448C77.4614 10.6448 77.8414 11.2248 77.8114 12.1448H75.5314ZM82.304 15.1948C82.894 15.2348 83.474 15.2648 84.024 15.2648C85.304 15.2648 86.074 14.7148 86.074 13.6948C86.074 13.0348 85.644 12.5648 85.014 12.4648C85.504 12.3048 85.814 11.8948 85.814 11.3348C85.814 10.5348 85.254 10.0348 83.894 10.0348C83.384 10.0348 82.844 10.0548 82.304 10.0948V15.1948ZM83.164 12.2548V10.6948C83.384 10.6748 83.594 10.6648 83.824 10.6648C84.594 10.6648 84.914 10.9548 84.914 11.4448C84.914 11.9248 84.644 12.2548 83.964 12.2548H83.164ZM83.954 12.8448C84.774 12.8448 85.154 13.1848 85.154 13.7448C85.154 14.3248 84.734 14.6248 84.094 14.6248C83.804 14.6248 83.484 14.6148 83.164 14.5848V12.8448H83.954Z" fill="white"/>
</svg>
