<svg width="117" height="40" viewBox="0 0 117 40" fill="none" xmlns="http://www.w3.org/2000/svg">
<rect x="0.5" y="0.5" width="116" height="39" rx="7.5" stroke="white" stroke-opacity="0.5"/>
<path d="M43.342 28.0332C42.88 28.1732 42.418 28.2432 41.956 28.2432C40.094 28.2432 38.988 26.8292 38.988 24.2952C38.988 22.0272 39.954 20.3472 41.956 20.3472C42.74 20.3472 43.566 20.6132 44.266 21.0472L44.714 20.0532C43.916 19.5772 42.978 19.2832 41.984 19.2832C39.282 19.2832 37.658 21.2852 37.658 24.3932C37.658 27.4032 39.114 29.3212 41.9 29.3212C42.852 29.3212 43.832 29.1392 44.616 28.8172V24.0712H43.342V28.0332ZM49.3506 29.3492C51.4086 29.3492 52.5706 27.8512 52.5706 25.5552C52.5706 23.2872 51.4506 21.8872 49.4626 21.8872C47.4046 21.8872 46.2286 23.3852 46.2286 25.6952C46.2286 27.9492 47.3486 29.3492 49.3506 29.3492ZM49.4206 28.3412C48.0906 28.3412 47.5166 27.1932 47.5166 25.5412C47.5166 23.9872 48.1326 22.8812 49.3786 22.8812C50.7086 22.8812 51.2826 24.0432 51.2826 25.6952C51.2826 27.2492 50.6806 28.3412 49.4206 28.3412ZM56.8702 29.3492C58.9282 29.3492 60.0902 27.8512 60.0902 25.5552C60.0902 23.2872 58.9702 21.8872 56.9822 21.8872C54.9242 21.8872 53.7482 23.3852 53.7482 25.6952C53.7482 27.9492 54.8682 29.3492 56.8702 29.3492ZM56.9402 28.3412C55.6102 28.3412 55.0362 27.1932 55.0362 25.5412C55.0362 23.9872 55.6522 22.8812 56.8982 22.8812C58.2282 22.8812 58.8022 24.0432 58.8022 25.6952C58.8022 27.2492 58.2002 28.3412 56.9402 28.3412ZM65.9017 29.0972C65.9017 30.7772 65.3697 31.2252 63.9417 31.2252C63.3817 31.2252 62.7517 31.1972 62.1917 31.1552L62.1497 32.0652C62.7937 32.1912 63.4937 32.2332 64.0117 32.2332C66.2517 32.2332 67.1337 31.2672 67.1337 29.0272V22.3492C66.3917 22.1112 65.4257 21.9432 64.6137 21.9432C62.2897 21.9432 61.2957 23.7072 61.2957 25.8072C61.2957 27.6832 62.0097 29.2512 63.7877 29.2512C64.6277 29.2512 65.2577 28.9152 65.9017 28.1592V29.0972ZM65.9017 26.9832C65.1877 27.9352 64.6837 28.2432 64.0397 28.2432C62.8777 28.2432 62.5837 26.9832 62.5837 25.7092C62.5837 23.9592 63.2137 22.9092 64.5017 22.9092C65.0337 22.9092 65.5097 23.0212 65.9017 23.1892V26.9832ZM71.3789 28.2712H70.8889C70.4829 28.2712 70.3569 27.9772 70.3569 27.5012V18.6812H69.1389V27.7952C69.1389 28.9152 69.7409 29.2792 70.5529 29.2792C70.8749 29.2792 71.1829 29.2372 71.3789 29.1812V28.2712ZM77.5945 28.0192C76.9505 28.2152 76.3345 28.3412 75.5225 28.3412C74.0105 28.3412 73.5345 27.3752 73.5345 25.7792H77.9305C77.9305 25.5552 77.9445 25.2192 77.9445 25.0792C77.9445 23.2032 77.1605 21.8872 75.2985 21.8872C73.3245 21.8872 72.2465 23.3432 72.2465 25.6532C72.2465 28.1032 73.2405 29.3492 75.3265 29.3492C76.2365 29.3492 77.0625 29.1952 77.7485 28.9572L77.5945 28.0192ZM73.5205 24.9112C73.5625 23.9032 74.0525 22.8112 75.2285 22.8112C76.2225 22.8112 76.7545 23.6232 76.7125 24.9112H73.5205ZM84.4021 29.1812V25.4292H85.5081C87.4961 25.4292 88.6581 24.2392 88.6581 22.2792C88.6581 20.8372 87.8881 19.8292 86.6561 19.5212C86.3061 19.4372 85.9141 19.4092 85.4941 19.4092H83.1281V29.1812H84.4021ZM84.4021 24.4072V20.4312H85.3961C85.6621 20.4312 85.9561 20.4452 86.2081 20.5292C86.8941 20.7252 87.3001 21.4532 87.3001 22.3632C87.3001 23.5952 86.7261 24.4072 85.5921 24.4072H84.4021ZM92.4746 28.2712H91.9846C91.5786 28.2712 91.4526 27.9772 91.4526 27.5012V18.6812H90.2346V27.7952C90.2346 28.9152 90.8366 29.2792 91.6486 29.2792C91.9706 29.2792 92.2786 29.2372 92.4746 29.1812V28.2712ZM98.6056 29.1812V24.2392C98.6056 22.9372 97.9756 21.8872 96.1136 21.8872C95.3156 21.8872 94.4756 22.0552 93.8036 22.3352L94.0416 23.2732C94.6436 23.0072 95.3156 22.8532 95.9176 22.8532C97.0376 22.8532 97.4016 23.3852 97.4016 24.4772V25.0372H96.3656C94.5596 25.0372 93.3276 25.7372 93.3276 27.2632C93.3276 28.5932 94.1676 29.3492 95.4976 29.3492C96.3656 29.3492 96.9956 28.9712 97.5556 28.4112L97.6536 29.1812H98.6056ZM97.4016 27.5012C96.8976 28.0192 96.4076 28.3972 95.7356 28.3972C94.9796 28.3972 94.5876 27.9352 94.5876 27.2072C94.5876 26.3812 95.1476 25.9052 96.3096 25.9052H97.4016V27.5012ZM99.8168 32.1072C100.041 32.1772 100.321 32.2332 100.629 32.2332C101.623 32.2332 102.309 31.5892 103.345 29.1812C104.045 27.5852 104.759 25.2612 105.515 22.0412H104.297C103.989 23.6652 103.569 25.3452 103.093 26.8712C102.995 27.1932 102.883 27.5572 102.785 27.8932H102.771C102.673 27.5712 102.575 27.1932 102.463 26.8712C101.945 25.3312 101.469 23.7632 101.063 22.0412H99.7608C100.363 24.5612 101.287 27.1932 102.099 29.1952C101.413 30.7912 101.035 31.1972 100.559 31.1972H99.8588L99.8168 32.1072Z" fill="white"/>
<path d="M14.564 9.45647C14.0681 9.13125 13.4771 9.10217 12.9617 9.37292L21.6036 18.8086L24.4292 15.7156L14.564 9.45647ZM12.1677 10.2462C12.0586 10.4977 12 10.7775 12 11.0654V28.3253C12 28.6145 12.059 28.8902 12.1692 29.1363L20.8077 19.6798L12.1677 10.2462ZM21.6047 20.5498L12.9767 29.9949C13.2057 30.1104 13.4493 30.1608 13.6926 30.1608C13.9929 30.1608 14.2926 30.0825 14.564 29.9048L24.4311 23.6362L21.6047 20.5498ZM28.1865 18.0995C28.1831 18.0971 28.1793 18.0946 28.1759 18.0926L25.4368 16.3546L22.4002 19.6786L25.4387 22.996C25.4387 22.996 28.1831 21.2527 28.1865 21.2506C28.6959 20.9135 29 20.3245 29 19.6749C29 19.0253 28.6959 18.4362 28.1865 18.0995Z" fill="white"/>
<path d="M42.53 14.4448H39.55C40.04 13.7048 40.31 12.5248 40.67 8.96482H42.53V14.4448ZM44.33 16.9248V14.4448H43.43V8.21482H39.84C39.44 12.5748 39.15 13.6548 38.58 14.4448H38V16.9248H38.8V15.1948H43.53V16.9248H44.33ZM47.1051 15.3148C48.5751 15.3148 49.4051 14.2448 49.4051 12.6048C49.4051 10.9848 48.6051 9.98482 47.1851 9.98482C45.7151 9.98482 44.8751 11.0548 44.8751 12.7048C44.8751 14.3148 45.6751 15.3148 47.1051 15.3148ZM47.1551 14.5948C46.2051 14.5948 45.7951 13.7748 45.7951 12.5948C45.7951 11.4848 46.2351 10.6948 47.1251 10.6948C48.0751 10.6948 48.4851 11.5248 48.4851 12.7048C48.4851 13.8148 48.0551 14.5948 47.1551 14.5948ZM53.4962 14.3448C53.1762 14.4948 52.8762 14.5548 52.5062 14.5548C51.6162 14.5548 51.1662 13.9248 51.1662 12.6448C51.1662 11.5048 51.5662 10.7248 52.4962 10.7248C52.8262 10.7248 53.1462 10.8148 53.4262 10.9348L53.6262 10.2748C53.2662 10.0848 52.8562 10.0048 52.4462 10.0048C51.1362 10.0048 50.2462 10.9748 50.2462 12.7348C50.2462 14.2848 50.8962 15.2948 52.3562 15.2948C52.7462 15.2948 53.1862 15.2248 53.6462 15.0148L53.4962 14.3448ZM56.2575 15.1948V10.8348H57.6175V10.0948H54.0275V10.8348H55.3875V15.1948H56.2575ZM57.957 17.2848C58.117 17.3348 58.317 17.3748 58.537 17.3748C59.247 17.3748 59.737 16.9148 60.477 15.1948C60.977 14.0548 61.487 12.3948 62.027 10.0948H61.157C60.937 11.2548 60.637 12.4548 60.297 13.5448C60.227 13.7748 60.147 14.0348 60.077 14.2748H60.067C59.997 14.0448 59.927 13.7748 59.847 13.5448C59.477 12.4448 59.137 11.3248 58.847 10.0948H57.917C58.347 11.8948 59.007 13.7748 59.587 15.2048C59.097 16.3448 58.827 16.6348 58.487 16.6348H57.987L57.957 17.2848ZM66.8888 15.1948V10.0948H62.9388V15.1948H63.8088V10.8248H66.0088V15.1948H66.8888ZM72.2794 15.1948V10.0948H71.3994V12.1448H69.1994V10.0948H68.3294V15.1948H69.1994V12.8648H71.3994V15.1948H72.2794ZM75.65 15.3148C77.12 15.3148 77.95 14.2448 77.95 12.6048C77.95 10.9848 77.15 9.98482 75.73 9.98482C74.26 9.98482 73.42 11.0548 73.42 12.7048C73.42 14.3148 74.22 15.3148 75.65 15.3148ZM75.7 14.5948C74.75 14.5948 74.34 13.7748 74.34 12.5948C74.34 11.4848 74.78 10.6948 75.67 10.6948C76.62 10.6948 77.03 11.5248 77.03 12.7048C77.03 13.8148 76.6 14.5948 75.7 14.5948ZM81.5227 15.1948C82.1127 15.2348 82.6927 15.2648 83.2427 15.2648C84.5227 15.2648 85.2927 14.7148 85.2927 13.6948C85.2927 13.0348 84.8627 12.5648 84.2327 12.4648C84.7227 12.3048 85.0327 11.8948 85.0327 11.3348C85.0327 10.5348 84.4727 10.0348 83.1127 10.0348C82.6027 10.0348 82.0627 10.0548 81.5227 10.0948V15.1948ZM82.3827 12.2548V10.6948C82.6027 10.6748 82.8127 10.6648 83.0427 10.6648C83.8127 10.6648 84.1327 10.9548 84.1327 11.4448C84.1327 11.9248 83.8627 12.2548 83.1827 12.2548H82.3827ZM83.1727 12.8448C83.9927 12.8448 84.3727 13.1848 84.3727 13.7448C84.3727 14.3248 83.9527 14.6248 83.3127 14.6248C83.0227 14.6248 82.7027 14.6148 82.3827 14.5848V12.8448H83.1727Z" fill="white"/>
</svg>
