<svg width="105" height="40" viewBox="0 0 105 40" fill="none" xmlns="http://www.w3.org/2000/svg">
<rect width="105" height="40" rx="8" fill="#333333"/>
<path d="M45.064 29.0708C44.196 25.8508 43.16 22.5608 41.9 19.2988H40.472C39.31 22.3648 38.26 25.5988 37.322 29.0708H38.624C38.834 28.2448 39.072 27.3348 39.31 26.4808H42.978C43.216 27.3348 43.44 28.2448 43.65 29.0708H45.064ZM39.576 25.4728C39.954 24.1988 40.374 22.8408 40.794 21.5668C40.906 21.2588 41.032 20.8668 41.13 20.5448H41.144C41.242 20.8668 41.354 21.2448 41.466 21.5668C41.9 22.8688 42.334 24.2128 42.712 25.4728H39.576ZM47.6069 31.9828V29.0148C48.0269 29.0988 48.4889 29.1688 48.9929 29.1688C51.2469 29.1688 52.2269 27.3628 52.2269 25.2488C52.2269 23.3448 51.4989 21.7768 49.7209 21.7768C48.7689 21.7768 48.1109 22.1828 47.4389 23.0088L47.3409 21.9308H46.3889V31.9828H47.6069ZM47.6069 24.0588C48.3489 23.0928 48.8389 22.7848 49.4829 22.7848C50.6309 22.7848 50.9249 24.0588 50.9249 25.3468C50.9249 27.1388 50.3089 28.2028 49.0209 28.2028C48.4609 28.2028 48.0129 28.0908 47.6069 27.9088V24.0588ZM55.058 31.9828V29.0148C55.478 29.0988 55.94 29.1688 56.444 29.1688C58.698 29.1688 59.678 27.3628 59.678 25.2488C59.678 23.3448 58.95 21.7768 57.172 21.7768C56.22 21.7768 55.562 22.1828 54.89 23.0088L54.792 21.9308H53.84V31.9828H55.058ZM55.058 24.0588C55.8 23.0928 56.29 22.7848 56.934 22.7848C58.082 22.7848 58.376 24.0588 58.376 25.3468C58.376 27.1388 57.76 28.2028 56.472 28.2028C55.912 28.2028 55.464 28.0908 55.058 27.9088V24.0588ZM64.3035 28.9308C64.9615 29.1268 65.6055 29.2388 66.2775 29.2388C68.2375 29.2388 69.4975 28.1888 69.4975 26.3688C69.4975 25.0528 68.7415 24.3668 67.3975 23.5968C66.3895 23.0088 65.7175 22.5748 65.7175 21.5948C65.7175 20.8248 66.2215 20.1668 67.2435 20.1668C67.7475 20.1668 68.2795 20.2648 68.7415 20.4188L68.9375 19.3968C68.4895 19.2288 67.8315 19.1308 67.2715 19.1308C65.5635 19.1308 64.3735 20.1528 64.3735 21.7488C64.3735 23.0508 65.0455 23.7508 66.3615 24.4788C67.4675 25.1228 68.1395 25.5428 68.1395 26.5368C68.1395 27.5028 67.5515 28.1748 66.3615 28.1748C65.7035 28.1748 65.0875 28.0488 64.4855 27.8388L64.3035 28.9308ZM74.0499 28.1748H73.4899C72.8179 28.1748 72.4959 28.0488 72.4959 27.0128V22.8828H74.0499V21.9308H72.4959V19.8588H71.5579L71.2639 21.9308H70.2839V22.8828H71.2779V27.3208C71.2779 28.7628 71.9639 29.1828 72.9719 29.1828C73.3639 29.1828 73.7839 29.1268 74.0499 29.0568V28.1748ZM78.1026 29.2388C80.1606 29.2388 81.3226 27.7408 81.3226 25.4448C81.3226 23.1768 80.2026 21.7768 78.2146 21.7768C76.1566 21.7768 74.9806 23.2748 74.9806 25.5848C74.9806 27.8388 76.1006 29.2388 78.1026 29.2388ZM78.1726 28.2308C76.8426 28.2308 76.2686 27.0828 76.2686 25.4308C76.2686 23.8768 76.8846 22.7708 78.1306 22.7708C79.4606 22.7708 80.0346 23.9328 80.0346 25.5848C80.0346 27.1388 79.4326 28.2308 78.1726 28.2308ZM84.1381 29.0708V24.3948C84.8941 23.3448 85.2721 22.9108 85.7061 22.9108C85.8881 22.9108 86.1681 22.9668 86.3641 23.0368L86.5461 21.9028C86.2661 21.8048 86.0281 21.7768 85.7481 21.7768C85.1041 21.7768 84.6841 22.2108 83.9981 23.2468L83.8721 21.9308H82.9201V29.0708H84.1381ZM92.5105 27.9088C91.8665 28.1048 91.2505 28.2308 90.4385 28.2308C88.9265 28.2308 88.4505 27.2648 88.4505 25.6688H92.8465C92.8465 25.4448 92.8605 25.1088 92.8605 24.9688C92.8605 23.0928 92.0765 21.7768 90.2145 21.7768C88.2405 21.7768 87.1625 23.2328 87.1625 25.5428C87.1625 27.9928 88.1565 29.2388 90.2425 29.2388C91.1525 29.2388 91.9785 29.0848 92.6645 28.8468L92.5105 27.9088ZM88.4365 24.8008C88.4785 23.7928 88.9685 22.7008 90.1445 22.7008C91.1385 22.7008 91.6705 23.5128 91.6285 24.8008H88.4365Z" fill="white"/>
<path d="M25.769 19.3655C25.7797 18.532 26.0014 17.7147 26.4135 16.9897C26.8255 16.2648 27.4145 15.6557 28.1256 15.2191C27.6738 14.5748 27.0779 14.0446 26.385 13.6705C25.6922 13.2965 24.9216 13.0889 24.1344 13.0643C22.4552 12.8883 20.8272 14.0678 19.9715 14.0678C19.0992 14.0678 17.7817 13.0818 16.363 13.1109C15.4453 13.1405 14.551 13.407 13.7671 13.8844C12.9832 14.3619 12.3365 15.0339 11.8901 15.8351C9.95607 19.179 11.3987 24.0934 13.2513 26.7964C14.1782 28.12 15.2615 29.5984 16.6789 29.546C18.066 29.4886 18.584 28.6627 20.2583 28.6627C21.9171 28.6627 22.4031 29.546 23.8493 29.5127C25.3377 29.4885 26.2754 28.1832 27.1698 26.8471C27.8358 25.904 28.3483 24.8617 28.6882 23.7588C27.8235 23.3935 27.0856 22.7822 26.5665 22.0009C26.0474 21.2197 25.77 20.3031 25.769 19.3655Z" fill="white"/>
<path d="M23.0373 11.2869C23.8488 10.3139 24.2487 9.06324 24.1518 7.80054C22.912 7.9306 21.7668 8.52244 20.9443 9.45814C20.5421 9.91525 20.2341 10.447 20.0379 11.0231C19.8416 11.5992 19.761 12.2082 19.8006 12.8155C20.4207 12.8218 21.0342 12.6876 21.5949 12.4228C22.1555 12.1581 22.6487 11.7697 23.0373 11.2869Z" fill="white"/>
<path d="M38.32 14.9345C38.73 15.0945 39.29 15.1745 39.8 15.1745C41.42 15.1745 42.31 14.3945 42.31 13.0945C42.31 12.1445 41.73 11.5145 40.89 11.4045V11.3845C41.64 11.1545 42.12 10.5245 42.12 9.71447C42.12 8.67447 41.44 7.98447 40.18 7.98447C39.56 7.98447 38.93 8.13447 38.45 8.36447L38.62 9.03447C39.04 8.82447 39.52 8.72447 39.98 8.72447C40.79 8.72447 41.16 9.17447 41.16 9.82447C41.16 10.5245 40.6 11.0945 39.62 11.0945H39.11V11.8145H39.66C40.47 11.8145 41.33 12.1045 41.33 13.1245C41.33 13.9245 40.85 14.4445 39.75 14.4445C39.32 14.4445 38.87 14.3845 38.46 14.2545L38.32 14.9345ZM46.9161 15.0845V11.5545C46.9161 10.6245 46.4661 9.87447 45.1361 9.87447C44.5661 9.87447 43.9661 9.99447 43.4861 10.1945L43.6561 10.8645C44.0861 10.6745 44.5661 10.5645 44.9961 10.5645C45.7961 10.5645 46.0561 10.9445 46.0561 11.7245V12.1245H45.3161C44.0261 12.1245 43.1461 12.6245 43.1461 13.7145C43.1461 14.6645 43.7461 15.2045 44.6961 15.2045C45.3161 15.2045 45.7661 14.9345 46.1661 14.5345L46.2361 15.0845H46.9161ZM46.0561 13.8845C45.6961 14.2545 45.3461 14.5245 44.8661 14.5245C44.3261 14.5245 44.0461 14.1945 44.0461 13.6745C44.0461 13.0845 44.4461 12.7445 45.2761 12.7445H46.0561V13.8845ZM49.2091 15.0845V10.7245H50.9491V9.98447H48.3391V15.0845H49.2091ZM52.6564 17.1645V15.0445C52.9564 15.1045 53.2864 15.1545 53.6464 15.1545C55.2564 15.1545 55.9564 13.8645 55.9564 12.3545C55.9564 10.9945 55.4364 9.87447 54.1664 9.87447C53.4864 9.87447 53.0164 10.1645 52.5364 10.7545L52.4664 9.98447H51.7864V17.1645H52.6564ZM52.6564 11.5045C53.1864 10.8145 53.5364 10.5945 53.9964 10.5945C54.8164 10.5945 55.0264 11.5045 55.0264 12.4245C55.0264 13.7045 54.5864 14.4645 53.6664 14.4645C53.2664 14.4645 52.9464 14.3845 52.6564 14.2545V11.5045ZM56.6191 17.1745C56.7791 17.2245 56.9791 17.2645 57.1991 17.2645C57.9091 17.2645 58.3991 16.8045 59.1391 15.0845C59.6391 13.9445 60.1491 12.2845 60.6891 9.98447H59.8191C59.5991 11.1445 59.2991 12.3445 58.9591 13.4345C58.8891 13.6645 58.8091 13.9245 58.7391 14.1645H58.7291C58.6591 13.9345 58.5891 13.6645 58.5091 13.4345C58.1391 12.3345 57.7991 11.2145 57.5091 9.98447H56.5791C57.0091 11.7845 57.6691 13.6645 58.2491 15.0945C57.7591 16.2345 57.4891 16.5245 57.1491 16.5245H56.6491L56.6191 17.1745ZM61.1909 14.9745C61.5809 15.1045 62.0709 15.1745 62.5109 15.1745C63.8809 15.1745 64.7009 14.6145 64.7009 13.5845C64.7009 12.8945 64.2109 12.4645 63.5709 12.3745V12.3645C64.1109 12.2145 64.5309 11.7445 64.5309 11.1345C64.5309 10.3745 63.9409 9.86447 62.8109 9.86447C62.2909 9.86447 61.7509 9.96447 61.3209 10.1445L61.4409 10.7645C61.8009 10.6045 62.2009 10.5345 62.5909 10.5345C63.3109 10.5345 63.6209 10.8245 63.6209 11.2545C63.6209 11.7645 63.2009 12.1145 62.3109 12.1145H61.9309V12.7545H62.3509C63.0409 12.7545 63.7709 12.9245 63.7709 13.6245C63.7709 14.1745 63.3709 14.5045 62.4809 14.5045C62.0909 14.5045 61.6909 14.4545 61.3109 14.3445L61.1909 14.9745ZM69.8289 15.0845V9.98447H69.0989L67.2089 12.8345L66.6789 13.7345L66.7189 12.6545V9.98447H65.8489V15.0845H66.5889L68.4689 12.2445L69.0089 11.3345L68.9589 12.4145V15.0845H69.8289ZM72.8688 15.0845V10.7245H74.2288V9.98447H70.6388V10.7245H71.9988V15.0845H72.8688ZM78.4414 14.2545C77.9814 14.3945 77.5414 14.4845 76.9614 14.4845C75.8814 14.4845 75.5414 13.7945 75.5414 12.6545H78.6814C78.6814 12.4945 78.6914 12.2545 78.6914 12.1545C78.6914 10.8145 78.1314 9.87447 76.8014 9.87447C75.3914 9.87447 74.6214 10.9145 74.6214 12.5645C74.6214 14.3145 75.3314 15.2045 76.8214 15.2045C77.4714 15.2045 78.0614 15.0945 78.5514 14.9245L78.4414 14.2545ZM75.5314 12.0345C75.5614 11.3145 75.9114 10.5345 76.7514 10.5345C77.4614 10.5345 77.8414 11.1145 77.8114 12.0345H75.5314ZM82.304 15.0845C82.894 15.1245 83.474 15.1545 84.024 15.1545C85.304 15.1545 86.074 14.6045 86.074 13.5845C86.074 12.9245 85.644 12.4545 85.014 12.3545C85.504 12.1945 85.814 11.7845 85.814 11.2245C85.814 10.4245 85.254 9.92447 83.894 9.92447C83.384 9.92447 82.844 9.94447 82.304 9.98447V15.0845ZM83.164 12.1445V10.5845C83.384 10.5645 83.594 10.5545 83.824 10.5545C84.594 10.5545 84.914 10.8445 84.914 11.3345C84.914 11.8145 84.644 12.1445 83.964 12.1445H83.164ZM83.954 12.7345C84.774 12.7345 85.154 13.0745 85.154 13.6345C85.154 14.2145 84.734 14.5145 84.094 14.5145C83.804 14.5145 83.484 14.5045 83.164 14.4745V12.7345H83.954Z" fill="white"/>
</svg>
