<svg width="117" height="40" viewBox="0 0 117 40" fill="none" xmlns="http://www.w3.org/2000/svg">
<rect width="117" height="40" rx="8" fill="#333333"/>
<path d="M43.342 27.9228C42.88 28.0628 42.418 28.1328 41.956 28.1328C40.094 28.1328 38.988 26.7188 38.988 24.1848C38.988 21.9168 39.954 20.2368 41.956 20.2368C42.74 20.2368 43.566 20.5028 44.266 20.9368L44.714 19.9428C43.916 19.4668 42.978 19.1728 41.984 19.1728C39.282 19.1728 37.658 21.1748 37.658 24.2828C37.658 27.2928 39.114 29.2108 41.9 29.2108C42.852 29.2108 43.832 29.0288 44.616 28.7068V23.9608H43.342V27.9228ZM49.3506 29.2388C51.4086 29.2388 52.5706 27.7408 52.5706 25.4448C52.5706 23.1768 51.4506 21.7768 49.4626 21.7768C47.4046 21.7768 46.2286 23.2748 46.2286 25.5848C46.2286 27.8388 47.3486 29.2388 49.3506 29.2388ZM49.4206 28.2308C48.0906 28.2308 47.5166 27.0828 47.5166 25.4308C47.5166 23.8768 48.1326 22.7708 49.3786 22.7708C50.7086 22.7708 51.2826 23.9328 51.2826 25.5848C51.2826 27.1388 50.6806 28.2308 49.4206 28.2308ZM56.8702 29.2388C58.9282 29.2388 60.0902 27.7408 60.0902 25.4448C60.0902 23.1768 58.9702 21.7768 56.9822 21.7768C54.9242 21.7768 53.7482 23.2748 53.7482 25.5848C53.7482 27.8388 54.8682 29.2388 56.8702 29.2388ZM56.9402 28.2308C55.6102 28.2308 55.0362 27.0828 55.0362 25.4308C55.0362 23.8768 55.6522 22.7708 56.8982 22.7708C58.2282 22.7708 58.8022 23.9328 58.8022 25.5848C58.8022 27.1388 58.2002 28.2308 56.9402 28.2308ZM65.9017 28.9868C65.9017 30.6668 65.3697 31.1148 63.9417 31.1148C63.3817 31.1148 62.7517 31.0868 62.1917 31.0448L62.1497 31.9548C62.7937 32.0808 63.4937 32.1228 64.0117 32.1228C66.2517 32.1228 67.1337 31.1568 67.1337 28.9168V22.2388C66.3917 22.0008 65.4257 21.8328 64.6137 21.8328C62.2897 21.8328 61.2957 23.5968 61.2957 25.6968C61.2957 27.5728 62.0097 29.1408 63.7877 29.1408C64.6277 29.1408 65.2577 28.8048 65.9017 28.0488V28.9868ZM65.9017 26.8728C65.1877 27.8248 64.6837 28.1328 64.0397 28.1328C62.8777 28.1328 62.5837 26.8728 62.5837 25.5988C62.5837 23.8488 63.2137 22.7988 64.5017 22.7988C65.0337 22.7988 65.5097 22.9108 65.9017 23.0788V26.8728ZM71.3789 28.1608H70.8889C70.4829 28.1608 70.3569 27.8668 70.3569 27.3908V18.5708H69.1389V27.6848C69.1389 28.8048 69.7409 29.1688 70.5529 29.1688C70.8749 29.1688 71.1829 29.1268 71.3789 29.0708V28.1608ZM77.5945 27.9088C76.9505 28.1048 76.3345 28.2308 75.5225 28.2308C74.0105 28.2308 73.5345 27.2648 73.5345 25.6688H77.9305C77.9305 25.4448 77.9445 25.1088 77.9445 24.9688C77.9445 23.0928 77.1605 21.7768 75.2985 21.7768C73.3245 21.7768 72.2465 23.2328 72.2465 25.5428C72.2465 27.9928 73.2405 29.2388 75.3265 29.2388C76.2365 29.2388 77.0625 29.0848 77.7485 28.8468L77.5945 27.9088ZM73.5205 24.8008C73.5625 23.7928 74.0525 22.7008 75.2285 22.7008C76.2225 22.7008 76.7545 23.5128 76.7125 24.8008H73.5205ZM84.4021 29.0708V25.3188H85.5081C87.4961 25.3188 88.6581 24.1288 88.6581 22.1688C88.6581 20.7268 87.8881 19.7188 86.6561 19.4108C86.3061 19.3268 85.9141 19.2988 85.4941 19.2988H83.1281V29.0708H84.4021ZM84.4021 24.2968V20.3208H85.3961C85.6621 20.3208 85.9561 20.3348 86.2081 20.4188C86.8941 20.6148 87.3001 21.3428 87.3001 22.2528C87.3001 23.4848 86.7261 24.2968 85.5921 24.2968H84.4021ZM92.4746 28.1608H91.9846C91.5786 28.1608 91.4526 27.8668 91.4526 27.3908V18.5708H90.2346V27.6848C90.2346 28.8048 90.8366 29.1688 91.6486 29.1688C91.9706 29.1688 92.2786 29.1268 92.4746 29.0708V28.1608ZM98.6056 29.0708V24.1288C98.6056 22.8268 97.9756 21.7768 96.1136 21.7768C95.3156 21.7768 94.4756 21.9448 93.8036 22.2248L94.0416 23.1628C94.6436 22.8968 95.3156 22.7428 95.9176 22.7428C97.0376 22.7428 97.4016 23.2748 97.4016 24.3668V24.9268H96.3656C94.5596 24.9268 93.3276 25.6268 93.3276 27.1528C93.3276 28.4828 94.1676 29.2388 95.4976 29.2388C96.3656 29.2388 96.9956 28.8608 97.5556 28.3008L97.6536 29.0708H98.6056ZM97.4016 27.3908C96.8976 27.9088 96.4076 28.2868 95.7356 28.2868C94.9796 28.2868 94.5876 27.8248 94.5876 27.0968C94.5876 26.2708 95.1476 25.7948 96.3096 25.7948H97.4016V27.3908ZM99.8168 31.9968C100.041 32.0668 100.321 32.1228 100.629 32.1228C101.623 32.1228 102.309 31.4788 103.345 29.0708C104.045 27.4748 104.759 25.1508 105.515 21.9308H104.297C103.989 23.5548 103.569 25.2348 103.093 26.7608C102.995 27.0828 102.883 27.4468 102.785 27.7828H102.771C102.673 27.4608 102.575 27.0828 102.463 26.7608C101.945 25.2208 101.469 23.6528 101.063 21.9308H99.7608C100.363 24.4508 101.287 27.0828 102.099 29.0848C101.413 30.6808 101.035 31.0868 100.559 31.0868H99.8588L99.8168 31.9968Z" fill="white"/>
<path d="M14.564 9.34637C14.0681 9.02114 13.4771 8.99206 12.9617 9.26281L21.6036 18.6985L24.4292 15.6056L14.564 9.34637ZM12.1677 10.1361C12.0586 10.3876 12 10.6674 12 10.9553V28.2153C12 28.5045 12.059 28.7802 12.1692 29.0264L20.8077 19.5698L12.1677 10.1361ZM21.6047 20.4398L12.9767 29.8849C13.2057 30.0004 13.4493 30.0508 13.6926 30.0508C13.9929 30.0508 14.2926 29.9725 14.564 29.7948L24.4311 23.5261L21.6047 20.4398ZM28.1865 17.9895C28.1831 17.987 28.1793 17.9846 28.1759 17.9825L25.4368 16.2446L22.4002 19.5685L25.4387 22.8859C25.4387 22.8859 28.1831 21.1426 28.1865 21.1406C28.6959 20.8035 29 20.2145 29 19.5648C29 18.9152 28.6959 18.3262 28.1865 17.9895Z" fill="white"/>
<path d="M42.53 14.3345H39.55C40.04 13.5945 40.31 12.4145 40.67 8.85447H42.53V14.3345ZM44.33 16.8145V14.3345H43.43V8.10447H39.84C39.44 12.4645 39.15 13.5445 38.58 14.3345H38V16.8145H38.8V15.0845H43.53V16.8145H44.33ZM47.1051 15.2045C48.5751 15.2045 49.4051 14.1345 49.4051 12.4945C49.4051 10.8745 48.6051 9.87447 47.1851 9.87447C45.7151 9.87447 44.8751 10.9445 44.8751 12.5945C44.8751 14.2045 45.6751 15.2045 47.1051 15.2045ZM47.1551 14.4845C46.2051 14.4845 45.7951 13.6645 45.7951 12.4845C45.7951 11.3745 46.2351 10.5845 47.1251 10.5845C48.0751 10.5845 48.4851 11.4145 48.4851 12.5945C48.4851 13.7045 48.0551 14.4845 47.1551 14.4845ZM53.4962 14.2345C53.1762 14.3845 52.8762 14.4445 52.5062 14.4445C51.6162 14.4445 51.1662 13.8145 51.1662 12.5345C51.1662 11.3945 51.5662 10.6145 52.4962 10.6145C52.8262 10.6145 53.1462 10.7045 53.4262 10.8245L53.6262 10.1645C53.2662 9.97447 52.8562 9.89447 52.4462 9.89447C51.1362 9.89447 50.2462 10.8645 50.2462 12.6245C50.2462 14.1745 50.8962 15.1845 52.3562 15.1845C52.7462 15.1845 53.1862 15.1145 53.6462 14.9045L53.4962 14.2345ZM56.2575 15.0845V10.7245H57.6175V9.98447H54.0275V10.7245H55.3875V15.0845H56.2575ZM57.957 17.1745C58.117 17.2245 58.317 17.2645 58.537 17.2645C59.247 17.2645 59.737 16.8045 60.477 15.0845C60.977 13.9445 61.487 12.2845 62.027 9.98447H61.157C60.937 11.1445 60.637 12.3445 60.297 13.4345C60.227 13.6645 60.147 13.9245 60.077 14.1645H60.067C59.997 13.9345 59.927 13.6645 59.847 13.4345C59.477 12.3345 59.137 11.2145 58.847 9.98447H57.917C58.347 11.7845 59.007 13.6645 59.587 15.0945C59.097 16.2345 58.827 16.5245 58.487 16.5245H57.987L57.957 17.1745ZM66.8888 15.0845V9.98447H62.9388V15.0845H63.8088V10.7145H66.0088V15.0845H66.8888ZM72.2794 15.0845V9.98447H71.3994V12.0345H69.1994V9.98447H68.3294V15.0845H69.1994V12.7545H71.3994V15.0845H72.2794ZM75.65 15.2045C77.12 15.2045 77.95 14.1345 77.95 12.4945C77.95 10.8745 77.15 9.87447 75.73 9.87447C74.26 9.87447 73.42 10.9445 73.42 12.5945C73.42 14.2045 74.22 15.2045 75.65 15.2045ZM75.7 14.4845C74.75 14.4845 74.34 13.6645 74.34 12.4845C74.34 11.3745 74.78 10.5845 75.67 10.5845C76.62 10.5845 77.03 11.4145 77.03 12.5945C77.03 13.7045 76.6 14.4845 75.7 14.4845ZM81.5227 15.0845C82.1127 15.1245 82.6927 15.1545 83.2427 15.1545C84.5227 15.1545 85.2927 14.6045 85.2927 13.5845C85.2927 12.9245 84.8627 12.4545 84.2327 12.3545C84.7227 12.1945 85.0327 11.7845 85.0327 11.2245C85.0327 10.4245 84.4727 9.92447 83.1127 9.92447C82.6027 9.92447 82.0627 9.94447 81.5227 9.98447V15.0845ZM82.3827 12.1445V10.5845C82.6027 10.5645 82.8127 10.5545 83.0427 10.5545C83.8127 10.5545 84.1327 10.8445 84.1327 11.3345C84.1327 11.8145 83.8627 12.1445 83.1827 12.1445H82.3827ZM83.1727 12.7345C83.9927 12.7345 84.3727 13.0745 84.3727 13.6345C84.3727 14.2145 83.9527 14.5145 83.3127 14.5145C83.0227 14.5145 82.7027 14.5045 82.3827 14.4745V12.7345H83.1727Z" fill="white"/>
</svg>
