<svg width="140" height="36" viewBox="0 0 140 36" fill="none" xmlns="http://www.w3.org/2000/svg">
<path d="M12.4408 0.759247C9.85386 0.759247 6.74954 3.24567 4.23316 7.42098C1.55216 11.7839 0 17.1321 0 21.8C0 28.6494 3.83336 35.5222 12.4408 35.5222C21.0482 35.5222 24.8816 28.6494 24.8816 21.8C24.8816 17.1321 23.3294 11.7605 20.6484 7.44443C18.132 3.24567 15.0277 0.759247 12.4408 0.759247ZM79.6304 10.9864H88.3319V33.6222H97.6684V10.9864H106.37V2.61233H79.6304V10.9864ZM126.313 10.9864H140V2.61233H126.313C113.731 2.61233 107.028 8.85184 107.028 18.1407C107.028 27.4296 113.754 33.6691 126.313 33.6691H140V25.2716H126.313C120.48 25.2716 116.694 23.1839 116.694 18.1407C116.694 13.0975 120.48 10.9864 126.313 10.9864ZM60.6518 2.63579L55.6661 21.1667L50.6803 2.63579H34.1945V33.6926H43.531V8.40616L50.3276 33.6457H61.0281L67.8246 8.38271V33.6457H77.1611V2.63579H60.6518Z" fill="#E30613"/>
</svg>
