<svg id="Layer_1" xmlns="http://www.w3.org/2000/svg" viewBox="0 0 60 40"><style>.st0{fill:gray}</style><path class="st0" d="M20.51 38.809a3.326 3.326 0 0 1-3.32-3.323 3.326 3.326 0 0 1 3.32-3.322 3.326 3.326 0 0 1 3.323 3.322 3.326 3.326 0 0 1-3.322 3.323zm0-5.645a2.324 2.324 0 0 0-2.32 2.322c0 1.28 1.04 2.323 2.32 2.323s2.323-1.042 2.323-2.323a2.325 2.325 0 0 0-2.322-2.322zm20.99 5.645a3.326 3.326 0 0 1-3.321-3.323 3.326 3.326 0 0 1 3.321-3.322 3.326 3.326 0 0 1 3.322 3.322 3.326 3.326 0 0 1-3.322 3.323zm0-5.645a2.324 2.324 0 0 0-2.321 2.322c0 1.28 1.04 2.323 2.321 2.323s2.322-1.042 2.322-2.323a2.325 2.325 0 0 0-2.322-2.322zm-24.506-9.28h27.11c1.547 0 2.861-1.155 3.06-2.75l.025-11.511-29.052-4.359a.508.508 0 0 0-.569.42.5.5 0 0 0 .42.57l28.201 4.229-.02 10.587a2.083 2.083 0 0 1-2.065 1.814h-27.11a2.05 2.05 0 0 1-2.03-1.756v-.67l-.03-15.064a4.259 4.259 0 0 0-4.253-4.262H7.473c-.277 0-.5.223-.5.5s.223.494.5.494h3.208c1.8 0 3.263 1.47 3.263 3.268l.036 15.064h-.004l-.005 5.753c.197 1.532 1.468 2.693 3.014 2.693H45.83a.5.5 0 1 0 0-1H16.985c-1.044 0-1.9-.786-2.03-1.757l.01-3.04a3.024 3.024 0 0 0 2.029.777z"/></svg>