<svg width="58" height="58" viewBox="0 0 58 58" fill="none" xmlns="http://www.w3.org/2000/svg">
<path d="M39.2494 31.7287C37.8772 35.1591 35.1591 37.8772 31.7287 39.2494L10.0986 47.9014L18.7506 26.2712C20.1228 22.8409 22.8409 20.1227 26.2713 18.7506L47.9015 10.0985L39.2494 31.7287Z" stroke="#999999"/>
<path d="M32.2 32.1639L32.2 32.1639L32.1965 32.1674C31.3805 32.9909 30.2502 33.5 29 33.5C26.5147 33.5 24.5 31.4853 24.5 29C24.5 27.7484 25.0103 26.617 25.8354 25.8007L25.8354 25.8008L25.8389 25.7972L25.8535 25.7825L25.8536 25.7825C25.8744 25.7617 25.8971 25.74 25.9218 25.7174L25.9218 25.7175L25.9262 25.7133C26.2594 25.4016 26.6397 25.1401 27.0552 24.9407L27.0716 24.9328L27.0874 24.9238C28.8007 23.942 31.6147 22.7746 34.0261 21.8453C35.2265 21.3826 36.3182 20.9823 37.1099 20.6977C37.2154 20.6597 37.3155 20.6239 37.4098 20.5902C37.3761 20.6846 37.3403 20.7847 37.3023 20.8902C37.0177 21.682 36.6173 22.7738 36.1546 23.9743C35.2252 26.3858 34.0578 29.1999 33.076 30.9131L33.067 30.9289L33.0591 30.9453C32.8601 31.3596 32.5995 31.739 32.2888 32.0715L32.2888 32.0714L32.2845 32.0761C32.2613 32.1016 32.2389 32.1251 32.2175 32.1465L32.2 32.1639Z" stroke="#999999"/>
<circle cx="29" cy="29" r="2" fill="#999999"/>
</svg>
