<svg width="40" height="38" viewBox="0 0 40 38" fill="none" xmlns="http://www.w3.org/2000/svg">
<path d="M0.5 7V29C0.5 33.4183 4.08172 37 8.5 37H34C36.7614 37 39 34.7614 39 32V14.5C39 11.7386 36.7614 9.5 34 9.5H10" stroke="#999999"/>
<path d="M21.5 23C21.5 21.067 23.067 19.5 25 19.5H39V26.5H25C23.067 26.5 21.5 24.933 21.5 23Z" stroke="#999999"/>
<circle cx="25" cy="23" r="2" fill="#999999"/>
<path d="M0.5 6.80088C0.5 8.29156 1.70844 9.5 3.19912 9.5H29.5V5.71092C29.5 2.98936 27.1029 0.890699 24.4053 1.25039L2.84239 4.12544C1.50145 4.30423 0.5 5.44808 0.5 6.80088Z" stroke="#999999"/>
</svg>
