<svg width="105" height="40" viewBox="0 0 105 40" fill="none" xmlns="http://www.w3.org/2000/svg"><rect x=".5" y=".5" width="104" height="39" rx="7.5" stroke="#fff" stroke-opacity=".5"/><path d="M45.064 29.181c-.868-3.22-1.904-6.51-3.164-9.772h-1.428a104.04 104.04 0 0 0-3.15 9.772h1.302c.21-.826.448-1.736.686-2.59h3.668c.238.854.462 1.764.672 2.59h1.414zm-5.488-3.598c.378-1.274.798-2.632 1.218-3.906.112-.308.238-.7.336-1.022h.014c.098.322.21.7.322 1.022.434 1.302.868 2.646 1.246 3.906h-3.136zm8.03 6.51v-2.968c.42.084.883.154 1.387.154 2.254 0 3.234-1.806 3.234-3.92 0-1.904-.728-3.472-2.506-3.472-.952 0-1.61.406-2.282 1.232l-.098-1.078h-.952v10.052h1.218zm0-7.924c.743-.966 1.233-1.274 1.877-1.274 1.148 0 1.442 1.274 1.442 2.562 0 1.792-.616 2.856-1.904 2.856-.56 0-1.008-.112-1.414-.294v-3.85zm7.452 7.924v-2.968c.42.084.882.154 1.386.154 2.254 0 3.234-1.806 3.234-3.92 0-1.904-.728-3.472-2.506-3.472-.952 0-1.61.406-2.282 1.232l-.098-1.078h-.952v10.052h1.218zm0-7.924c.742-.966 1.232-1.274 1.876-1.274 1.148 0 1.442 1.274 1.442 2.562 0 1.792-.616 2.856-1.904 2.856-.56 0-1.008-.112-1.414-.294v-3.85zm9.245 4.872a6.831 6.831 0 0 0 1.975.308c1.96 0 3.22-1.05 3.22-2.87 0-1.316-.757-2.002-2.1-2.772-1.008-.588-1.68-1.022-1.68-2.002 0-.77.504-1.428 1.525-1.428.505 0 1.037.098 1.499.252l.195-1.022c-.447-.168-1.105-.266-1.665-.266-1.709 0-2.898 1.022-2.898 2.618 0 1.302.672 2.002 1.988 2.73 1.106.644 1.778 1.064 1.778 2.058 0 .966-.588 1.638-1.778 1.638a5.63 5.63 0 0 1-1.876-.336l-.183 1.092zm9.747-.756h-.56c-.672 0-.994-.126-.994-1.162v-4.13h1.554v-.952h-1.554V19.97h-.938l-.294 2.072h-.98v.952h.994v4.438c0 1.442.686 1.862 1.694 1.862.392 0 .812-.056 1.078-.126v-.882zm4.053 1.064c2.058 0 3.22-1.498 3.22-3.794 0-2.268-1.12-3.668-3.108-3.668-2.058 0-3.234 1.498-3.234 3.808 0 2.254 1.12 3.654 3.122 3.654zm.07-1.008c-1.33 0-1.904-1.148-1.904-2.8 0-1.554.616-2.66 1.862-2.66 1.33 0 1.904 1.162 1.904 2.814 0 1.554-.602 2.646-1.862 2.646zm5.965.84v-4.676c.756-1.05 1.134-1.484 1.568-1.484.182 0 .462.056.658.126l.182-1.134a2.265 2.265 0 0 0-.798-.126c-.644 0-1.064.434-1.75 1.47l-.126-1.316h-.952v7.14h1.218zm8.372-1.162a6.703 6.703 0 0 1-2.072.322c-1.511 0-1.987-.966-1.987-2.562h4.396c0-.224.014-.56.014-.7 0-1.876-.785-3.192-2.647-3.192-1.974 0-3.052 1.456-3.052 3.766 0 2.45.994 3.696 3.08 3.696a7.44 7.44 0 0 0 2.422-.392l-.154-.938zm-4.074-3.108c.042-1.008.532-2.1 1.708-2.1.994 0 1.526.812 1.484 2.1h-3.192zm-62.667-5.435a4.935 4.935 0 0 1 2.357-4.146 5.063 5.063 0 0 0-3.992-2.155c-1.679-.176-3.307 1.003-4.163 1.003-.872 0-2.19-.986-3.608-.957a5.32 5.32 0 0 0-4.473 2.725c-1.934 3.344-.491 8.258 1.361 10.96.927 1.324 2.01 2.803 3.428 2.75 1.387-.057 1.905-.883 3.58-.883 1.658 0 2.144.883 3.59.85 1.489-.024 2.426-1.33 3.32-2.666a10.938 10.938 0 0 0 1.52-3.088 4.78 4.78 0 0 1-2.92-4.393zm-2.732-8.079a4.861 4.861 0 0 0 1.115-3.486 4.96 4.96 0 0 0-3.208 1.658 4.627 4.627 0 0 0-1.143 3.357 4.103 4.103 0 0 0 3.236-1.529zm15.283 3.648c.41.16.97.24 1.48.24 1.62 0 2.51-.78 2.51-2.08 0-.95-.58-1.58-1.42-1.69v-.02c.75-.23 1.23-.86 1.23-1.67 0-1.04-.68-1.73-1.94-1.73-.62 0-1.25.15-1.73.38l.17.67c.42-.21.9-.31 1.36-.31.81 0 1.18.45 1.18 1.1 0 .7-.56 1.27-1.54 1.27h-.51v.72h.55c.81 0 1.67.29 1.67 1.31 0 .8-.48 1.32-1.58 1.32-.43 0-.88-.06-1.29-.19l-.14.68zm8.596.15v-3.53c0-.93-.45-1.68-1.78-1.68-.57 0-1.17.12-1.65.32l.17.67c.43-.19.91-.3 1.34-.3.8 0 1.06.38 1.06 1.16v.4h-.74c-1.29 0-2.17.5-2.17 1.59 0 .95.6 1.49 1.55 1.49.62 0 1.07-.27 1.47-.67l.07.55h.68zm-.86-1.2c-.36.37-.71.64-1.19.64-.54 0-.82-.33-.82-.85 0-.59.4-.93 1.23-.93h.78v1.14zm3.153 1.2v-4.36h1.74v-.74h-2.61v5.1h.87zm3.447 2.08v-2.12c.3.06.63.11.99.11 1.61 0 2.31-1.29 2.31-2.8 0-1.36-.52-2.48-1.79-2.48-.68 0-1.15.29-1.63.88l-.07-.77h-.68v7.18h.87zm0-5.66c.53-.69.88-.91 1.34-.91.82 0 1.03.91 1.03 1.83 0 1.28-.44 2.04-1.36 2.04-.4 0-.72-.08-1.01-.21v-2.75zm3.963 5.67c.16.05.36.09.58.09.71 0 1.2-.46 1.94-2.18.5-1.14 1.01-2.8 1.55-5.1h-.87a31.62 31.62 0 0 1-.86 3.45c-.07.23-.15.49-.22.73h-.01c-.07-.23-.14-.5-.22-.73-.37-1.1-.71-2.22-1-3.45h-.93c.43 1.8 1.09 3.68 1.67 5.11-.49 1.14-.76 1.43-1.1 1.43h-.5l-.03.65zm4.572-2.2c.39.13.88.2 1.32.2 1.37 0 2.19-.56 2.19-1.59 0-.69-.49-1.12-1.13-1.21v-.01c.54-.15.96-.62.96-1.23 0-.76-.59-1.27-1.72-1.27-.52 0-1.06.1-1.49.28l.12.62c.36-.16.76-.23 1.15-.23.72 0 1.03.29 1.03.72 0 .51-.42.86-1.31.86h-.38v.64h.42c.69 0 1.42.17 1.42.87 0 .55-.4.88-1.29.88-.39 0-.79-.05-1.17-.16l-.12.63zm8.638.11v-5.1h-.73l-1.89 2.85-.53.9.04-1.08v-2.67h-.87v5.1h.74l1.88-2.84.54-.91-.05 1.08v2.67h.87zm3.04 0v-4.36h1.36v-.74h-3.59v.74h1.36v4.36h.87zm5.572-.83c-.46.14-.9.23-1.48.23-1.08 0-1.42-.69-1.42-1.83h3.14c0-.16.01-.4.01-.5 0-1.34-.56-2.28-1.89-2.28-1.41 0-2.18 1.04-2.18 2.69 0 1.75.71 2.64 2.2 2.64.65 0 1.24-.11 1.73-.28l-.11-.67zm-2.91-2.22c.03-.72.38-1.5 1.22-1.5.71 0 1.09.58 1.06 1.5h-2.28zm6.773 3.05c.59.04 1.17.07 1.72.07 1.28 0 2.05-.55 2.05-1.57 0-.66-.43-1.13-1.06-1.23.49-.16.8-.57.8-1.13 0-.8-.56-1.3-1.92-1.3-.51 0-1.05.02-1.59.06v5.1zm.86-2.94v-1.56c.22-.02.43-.03.66-.03.77 0 1.09.29 1.09.78 0 .48-.27.81-.95.81h-.8zm.79.59c.82 0 1.2.34 1.2.9 0 .58-.42.88-1.06.88-.29 0-.61-.01-.93-.04v-1.74h.79z" fill="#fff"/></svg>