<svg width="136" height="40" viewBox="0 0 136 40" fill="none" xmlns="http://www.w3.org/2000/svg">
<path d="M130.129 40H5.12891C2.37891 40 0.128906 37.75 0.128906 35V5C0.128906 2.25 2.37891 0 5.12891 0H130.129C132.879 0 135.129 2.25 135.129 5V35C135.129 37.75 132.879 40 130.129 40Z" fill="black"/>
<path d="M130.129 0H5.12891C2.37891 0 0.128906 2.25 0.128906 5V35C0.128906 37.75 2.37891 40 5.12891 40H130.129C132.879 40 135.129 37.75 135.129 35V5C135.129 2.25 132.879 0 130.129 0ZM130.129 0.799999C132.445 0.799999 134.329 2.6844 134.329 5V35C134.329 37.316 132.445 39.2004 130.129 39.2004H5.12891C2.81331 39.2004 0.928906 37.316 0.928906 35V5C0.928906 2.6844 2.81331 0.799999 5.12891 0.799999H130.129Z" fill="#A6A6A6"/>
<path d="M107.065 30H108.931V17.4988H107.065V30ZM123.872 22.002L121.733 27.4219H121.669L119.449 22.002H117.439L120.768 29.5773L118.87 33.791H120.817L125.947 22.002H123.872ZM113.29 28.5801C112.678 28.5801 111.826 28.2746 111.826 27.5184C111.826 26.5535 112.888 26.1836 113.804 26.1836C114.625 26.1836 115.01 26.3605 115.509 26.602C115.364 27.7598 114.367 28.5801 113.29 28.5801ZM113.515 21.7285C112.164 21.7285 110.765 22.3238 110.186 23.6426L111.842 24.334C112.196 23.6426 112.855 23.4172 113.547 23.4172C114.512 23.4172 115.493 23.9965 115.509 25.0258V25.1543C115.171 24.9613 114.448 24.6719 113.563 24.6719C111.778 24.6719 109.96 25.6527 109.96 27.4863C109.96 29.159 111.424 30.2367 113.064 30.2367C114.319 30.2367 115.01 29.6738 115.445 29.0145H115.509V29.9793H117.31V25.1863C117.31 22.9672 115.654 21.7285 113.515 21.7285ZM101.983 23.5238H99.3289V19.2387H101.983C103.378 19.2387 104.17 20.3937 104.17 21.3812C104.17 22.35 103.378 23.5238 101.983 23.5238ZM101.935 17.4988H97.4639V30H99.3289V25.2637H101.935C104.003 25.2637 106.036 23.7664 106.036 21.3812C106.036 18.9961 104.003 17.4988 101.935 17.4988ZM77.5539 28.5824C76.2648 28.5824 75.1855 27.5031 75.1855 26.0207C75.1855 24.5227 76.2648 23.427 77.5539 23.427C78.8266 23.427 79.8254 24.5227 79.8254 26.0207C79.8254 27.5031 78.8266 28.5824 77.5539 28.5824ZM79.6965 22.702H79.632C79.2133 22.2027 78.4074 21.7516 77.3926 21.7516C75.266 21.7516 73.3168 23.6203 73.3168 26.0207C73.3168 28.4051 75.266 30.2578 77.3926 30.2578C78.4074 30.2578 79.2133 29.8066 79.632 29.2914H79.6965V29.9035C79.6965 31.5309 78.8266 32.4008 77.425 32.4008C76.2812 32.4008 75.5723 31.5789 75.282 30.8863L73.6551 31.5629C74.1223 32.6906 75.3629 34.0762 77.425 34.0762C79.616 34.0762 81.4687 32.7871 81.4687 29.6457V22.0094H79.6965V22.702ZM82.7574 30H84.6262V17.4984H82.7574V30ZM87.3812 25.8758C87.3328 24.2324 88.6539 23.3949 89.6043 23.3949C90.3459 23.3949 90.9739 23.7652 91.1829 24.2973L87.3812 25.8758ZM93.1809 24.4582C92.8269 23.5074 91.7469 21.7516 89.5398 21.7516C87.3488 21.7516 85.5285 23.4754 85.5285 26.0047C85.5285 28.3891 87.3328 30.2578 89.7492 30.2578C91.6989 30.2578 92.8269 29.0656 93.2939 28.373L91.8439 27.4062C91.3609 28.1152 90.6999 28.5824 89.7492 28.5824C88.7988 28.5824 88.1223 28.1473 87.6871 27.2937L93.3739 24.9414L93.1809 24.4582ZM47.8727 23.0566V24.8609H52.1902C52.0613 25.8758 51.723 26.6168 51.2074 27.1324C50.5793 27.7609 49.5965 28.4535 47.8727 28.4535C45.2144 28.4535 43.1363 26.3109 43.1363 23.6527C43.1363 20.9945 45.2144 18.8516 47.8727 18.8516C49.3066 18.8516 50.3535 19.4156 51.1269 20.1406L52.3996 18.868C51.3203 17.8367 49.8863 17.0473 47.8727 17.0473C44.2316 17.0473 41.1707 20.0117 41.1707 23.6527C41.1707 27.2937 44.2316 30.2578 47.8727 30.2578C49.8383 30.2578 51.3203 29.6137 52.4801 28.4051C53.6723 27.2129 54.043 25.5375 54.043 24.1844C54.043 23.7652 54.0109 23.3789 53.9461 23.0566H47.8727ZM58.9516 28.5824C57.6625 28.5824 56.5508 27.5191 56.5508 26.0047C56.5508 24.4742 57.6625 23.427 58.9516 23.427C60.2402 23.427 61.3519 24.4742 61.3519 26.0047C61.3519 27.5191 60.2402 28.5824 58.9516 28.5824ZM58.9516 21.7516C56.5992 21.7516 54.682 23.5398 54.682 26.0047C54.682 28.4535 56.5992 30.2578 58.9516 30.2578C61.3035 30.2578 63.2207 28.4535 63.2207 26.0047C63.2207 23.5398 61.3035 21.7516 58.9516 21.7516ZM68.2648 28.5824C66.9762 28.5824 65.8644 27.5191 65.8644 26.0047C65.8644 24.4742 66.9762 23.427 68.2648 23.427C69.5535 23.427 70.6652 24.4742 70.6652 26.0047C70.6652 27.5191 69.5535 28.5824 68.2648 28.5824ZM68.2648 21.7516C65.9125 21.7516 63.9957 23.5398 63.9957 26.0047C63.9957 28.4535 65.9125 30.2578 68.2648 30.2578C70.6168 30.2578 72.534 28.4535 72.534 26.0047C72.534 23.5398 70.6168 21.7516 68.2648 21.7516Z" fill="white"/>
<path d="M10.6389 32.3894L10.5646 32.3183C10.2736 32.0104 10.1018 31.5323 10.1018 30.9132V31.0589V8.94292C10.1018 8.94092 10.1018 8.93942 10.1018 8.93782C10.1018 8.93972 10.1018 8.94132 10.1018 8.94332V9.08942C10.1018 8.41902 10.3021 7.91402 10.6377 7.61122L23.0275 20.0007L10.6389 32.3894ZM10.1018 8.93662C10.1018 8.88152 10.1033 8.82802 10.1061 8.77532C10.1033 8.82762 10.1018 8.88152 10.1018 8.93662ZM10.1061 8.77292C10.1061 8.77222 10.1061 8.77142 10.1064 8.77062C10.1061 8.77142 10.1061 8.77222 10.1061 8.77292ZM10.1064 8.76592C10.1064 8.76552 10.1064 8.76512 10.1064 8.76472C10.1064 8.76512 10.1064 8.76552 10.1064 8.76592Z" fill="url(#paint0_linear)"/>
<path d="M27.1569 24.2785L27.2511 24.225L32.144 21.4449C32.6105 21.1797 32.9214 20.8582 33.0765 20.518C32.9218 20.8582 32.6108 21.1801 32.144 21.4453L27.2511 24.2254L27.1569 24.2785ZM27.1581 24.132L23.0276 20.0008L27.1577 15.8703L32.144 18.7031C32.7772 19.0629 33.1327 19.5266 33.1921 20.0004C33.1921 20.0008 33.1921 20.0016 33.1921 20.0023C33.1327 20.475 32.7772 20.9391 32.144 21.2988L27.1581 24.132Z" fill="url(#paint1_linear)"/>
<path d="M11.522 32.8613C11.1759 32.8613 10.8739 32.7488 10.6384 32.5363L10.6388 32.5359C10.8743 32.7484 11.1767 32.8613 11.5228 32.8613C11.5528 32.8613 11.5833 32.8605 11.6142 32.859C11.5829 32.8605 11.552 32.8613 11.522 32.8613ZM11.5224 32.7148C11.1763 32.7152 10.8743 32.6023 10.6388 32.3898V32.3895L23.0274 20.0008L27.1579 24.132L12.6427 32.3793C12.2411 32.607 11.8606 32.7148 11.5224 32.7148ZM10.6353 32.5336C10.6134 32.5137 10.5919 32.4926 10.5708 32.4707L10.6353 32.5336Z" fill="url(#paint2_linear)"/>
<path d="M23.0275 20.0008L10.6377 7.6113C10.8732 7.3992 11.1748 7.2867 11.5205 7.2867C11.8596 7.2867 12.2404 7.3949 12.6428 7.623L27.1576 15.8703L23.0275 20.0008ZM27.251 15.777L12.6428 7.47699C12.2404 7.24879 11.8596 7.1406 11.5205 7.1406C11.5189 7.1406 11.5178 7.1406 11.5162 7.1406C11.5182 7.1406 11.5197 7.1406 11.5221 7.1406C11.8604 7.1406 12.2408 7.24839 12.6428 7.47659L27.251 15.777Z" fill="url(#paint3_linear)"/>
<path d="M11.6142 32.8591C11.9286 32.8411 12.2767 32.7329 12.6427 32.5255L27.1567 24.2786L12.6427 32.5255C12.277 32.7333 11.9286 32.8411 11.6142 32.8591ZM10.6384 32.5364L10.6353 32.5337C10.6364 32.5345 10.6376 32.5356 10.6384 32.5364ZM10.5708 32.4708L10.5645 32.4646V32.4642C10.5669 32.4665 10.5688 32.4688 10.5708 32.4708Z" fill="black"/>
<path d="M27.1567 24.2785L27.2498 24.2256L27.1567 24.2785Z" fill="url(#paint4_linear)"/>
<path d="M11.5228 32.8613C11.1767 32.8613 10.8743 32.7484 10.6388 32.5359L10.6384 32.5363C10.6376 32.5355 10.6364 32.5344 10.6353 32.5336L10.5708 32.4707C10.5688 32.4687 10.5669 32.4664 10.5645 32.4641L10.6388 32.3898C10.8743 32.6023 11.1763 32.7152 11.5224 32.7148C11.8606 32.7148 12.2411 32.607 12.6427 32.3793L27.1579 24.132L27.2509 24.225L27.1567 24.2785L12.6427 32.5254C12.2767 32.7328 11.9286 32.841 11.6142 32.859C11.5833 32.8605 11.5528 32.8613 11.5228 32.8613Z" fill="url(#paint5_linear)"/>
<path d="M10.5646 32.4645C10.2736 32.1566 10.1018 31.6785 10.1018 31.0594V31.059C10.1018 31.6785 10.2736 32.1562 10.5646 32.4641V32.4645Z" fill="black"/>
<path d="M10.5646 32.4641C10.2736 32.1562 10.1018 31.6784 10.1018 31.0589V30.9132C10.1018 31.5323 10.2736 32.0105 10.5646 32.3184L10.6389 32.3895L10.5646 32.4641Z" fill="url(#paint6_linear)"/>
<path d="M10.5645 32.4641L10.6388 32.3894V32.3897L10.5645 32.4641Z" fill="url(#paint7_linear)"/>
<path d="M33.0767 20.518C33.1536 20.3492 33.1923 20.1758 33.1923 20.0023C33.1923 20.002 33.1923 20.0016 33.1923 20.0016C33.1923 20.1754 33.1536 20.3488 33.0767 20.518Z" fill="black"/>
<path d="M27.2507 24.225L27.1577 24.132L32.1436 21.2988C32.7768 20.9391 33.1323 20.475 33.1917 20.0023C33.1917 20.1758 33.153 20.3492 33.0761 20.518C32.921 20.8582 32.6101 21.1797 32.1436 21.4449L27.2507 24.225Z" fill="url(#paint8_linear)"/>
<path d="M33.1921 20.0008V20.0004C33.1917 19.4773 32.8421 18.9543 32.144 18.5574L27.2511 15.7773H27.2507L27.2511 15.777L32.144 18.557C32.8429 18.9539 33.1929 19.4777 33.1921 20.0008Z" fill="#404040"/>
<path d="M33.1919 20.0004C33.1325 19.5266 32.777 19.0629 32.1438 18.7031L27.1575 15.8703L27.2505 15.7773H27.2509L32.1438 18.5574C32.8419 18.9543 33.1915 19.4773 33.1919 20.0004Z" fill="url(#paint9_linear)"/>
<path d="M10.1018 8.93788C10.1018 8.93748 10.1018 8.93708 10.1018 8.93668C10.1018 8.93708 10.1018 8.93748 10.1018 8.93788ZM10.1061 8.77538C10.1061 8.77458 10.1061 8.77378 10.1061 8.77298C10.1061 8.77378 10.1061 8.77458 10.1061 8.77538ZM10.1064 8.77068C10.1064 8.76908 10.1064 8.76758 10.1064 8.76598C10.1064 8.76758 10.1064 8.76908 10.1064 8.77068ZM10.1064 8.76478C10.1643 7.73748 10.7229 7.14408 11.5131 7.14058C11.1705 7.14258 10.8721 7.25508 10.6385 7.46558V7.46518L10.6357 7.46798C10.6111 7.49018 10.5877 7.51368 10.5646 7.53788C10.3021 7.81558 10.1365 8.23158 10.1064 8.76478Z" fill="#404040"/>
<path d="M10.1018 9.08943V8.94333C10.1018 8.94133 10.1018 8.93973 10.1018 8.93783C10.1018 8.93743 10.1018 8.93703 10.1018 8.93663C10.1018 8.88153 10.1033 8.82763 10.1061 8.77533C10.1061 8.77453 10.1061 8.77373 10.1061 8.77293C10.1061 8.77223 10.1061 8.77143 10.1064 8.77063C10.1064 8.76903 10.1064 8.76753 10.1064 8.76593C10.1064 8.76553 10.1064 8.76513 10.1064 8.76473C10.1365 8.23153 10.3021 7.81553 10.5646 7.53783L10.6377 7.61123C10.3021 7.91403 10.1018 8.41903 10.1018 9.08943ZM10.6357 7.46793L10.6385 7.46513C10.6377 7.46633 10.6365 7.46713 10.6357 7.46793Z" fill="url(#paint10_linear)"/>
<path d="M27.1575 15.8704L12.6427 7.62308C12.2403 7.39498 11.8595 7.28678 11.5204 7.28678C11.1747 7.28678 10.8731 7.39928 10.6376 7.61138L10.5645 7.53798C10.5876 7.51378 10.611 7.49028 10.6356 7.46808C10.6364 7.46728 10.6376 7.46648 10.6384 7.46568C10.872 7.25518 11.1704 7.14268 11.513 7.14068C11.5138 7.14068 11.5149 7.14068 11.5161 7.14068C11.5177 7.14068 11.5188 7.14068 11.5204 7.14068C11.8595 7.14068 12.2403 7.24888 12.6427 7.47708L27.2509 15.7771L27.2505 15.7774L27.1575 15.8704Z" fill="url(#paint11_linear)"/>
<path d="M43.6255 9.96675C43.6372 10.9159 43.447 11.6815 43.0563 12.2628H46.0895V7.73705H43.6255V9.96675ZM42.2427 14.2733H41.5056V12.2628H42.0923C42.6118 11.8151 42.8657 11.0503 42.8552 9.96675V6.99995H46.861V12.2628H47.531V14.2733H46.7935V12.9999H42.2427V14.2733Z" fill="white"/>
<path d="M43.6254 9.9668L43.5254 9.968L43.5262 10.0488C43.5258 10.9469 43.3383 11.6641 42.973 12.207L42.8684 12.3629H46.1894V7.6371H43.5254V9.9676V9.968L43.6254 9.9668H43.7254V7.8371H45.9894V12.1629H43.0562V12.2629L43.1391 12.3184C43.5324 11.7332 43.7262 10.9738 43.7262 10.0488L43.7254 9.9656L43.6254 9.9668H43.7254H43.6254ZM42.2426 14.2734V14.1734H41.6055V12.3629H42.0922H42.1293L42.1574 12.3387C42.698 11.8723 42.9555 11.0953 42.9555 10.0324L42.9551 9.966V9.9668V7.1H46.7609V12.3629H47.4309V14.1734H46.8934V13V12.9H42.1426V14.2734H42.2426V14.1734V14.2734H42.3426V13.1H46.6934V14.2734V14.3734H47.5309H47.6309V12.1629H46.9609V6.9H42.7551V9.9672V9.9676L42.7555 10.0324C42.7551 11.0672 42.5043 11.777 42.0269 12.1867L42.0922 12.2629V12.1629H41.5055H41.4055V14.3734H42.2426H42.3426V14.2734H42.2426Z" fill="white"/>
<path d="M49.7131 11.7223C50.1576 12.1719 50.7006 12.3965 51.3432 12.3965C51.9857 12.3965 52.5295 12.1719 52.9728 11.7223C53.4174 11.2727 53.64 10.698 53.64 10C53.64 9.30205 53.4174 8.72735 52.9728 8.27775C52.5295 7.82815 51.9857 7.60355 51.3432 7.60355C50.7006 7.60355 50.1576 7.82815 49.7131 8.27775C49.2697 8.72735 49.0471 9.30205 49.0471 10C49.0471 10.698 49.2697 11.2727 49.7131 11.7223ZM53.5432 12.2246C52.9533 12.8312 52.2201 13.134 51.3432 13.134C50.4662 13.134 49.7326 12.8312 49.1439 12.2246C48.5541 11.6187 48.26 10.877 48.26 10C48.26 9.12305 48.5541 8.38125 49.1439 7.77545C49.7326 7.16875 50.4662 6.86565 51.3432 6.86565C52.215 6.86565 52.9467 7.17035 53.5392 7.77935C54.131 8.38835 54.4271 9.12855 54.4271 10C54.4271 10.877 54.1322 11.6187 53.5432 12.2246Z" fill="white"/>
<path d="M49.7133 11.7223L49.6422 11.7926C50.1027 12.2602 50.6773 12.4977 51.3434 12.4965C52.009 12.4977 52.5848 12.2602 53.0441 11.7926C53.5078 11.3246 53.741 10.7191 53.7402 9.99998C53.741 9.28088 53.5078 8.67538 53.0441 8.20738C52.5848 7.73978 52.009 7.50228 51.3434 7.50348C50.6773 7.50228 50.1027 7.73978 49.6422 8.20738C49.1797 8.67538 48.9465 9.28088 48.9473 9.99998C48.9465 10.7191 49.1797 11.3246 49.6422 11.7926L49.7133 11.7223L49.7848 11.652C49.3605 11.2203 49.1484 10.6773 49.1473 9.99998C49.1484 9.32268 49.3605 8.77968 49.7848 8.34798H49.7844C50.2125 7.91638 50.7238 7.70468 51.3434 7.70348C51.9625 7.70468 52.475 7.91638 52.9019 8.34798L52.9035 8.34958L52.9019 8.34798C53.3273 8.77968 53.5391 9.32268 53.5402 9.99998C53.5391 10.6773 53.3273 11.2203 52.9019 11.652C52.475 12.0836 51.9625 12.2953 51.3434 12.2965C50.7238 12.2953 50.2125 12.0836 49.7844 11.652L49.7133 11.7223ZM53.5434 12.2246L53.4719 12.1551C52.8988 12.7426 52.1973 13.0328 51.3434 13.034C50.4891 13.0328 49.7879 12.7426 49.2156 12.1551C48.6437 11.5656 48.3613 10.8547 48.3602 9.99998C48.3613 9.14528 48.6437 8.43438 49.2156 7.84488C49.7879 7.25738 50.4891 6.96678 51.3434 6.96558C52.1922 6.96678 52.8918 7.25858 53.468 7.84918C54.0422 8.44138 54.3262 9.15118 54.3273 9.99998C54.3262 10.8547 54.043 11.5656 53.4719 12.1551L53.5434 12.2246L53.6152 12.2941C54.2215 11.6715 54.5281 10.8992 54.5273 9.99998C54.5281 9.10588 54.2207 8.33518 53.6113 7.70978C53.0019 7.08198 52.2387 6.76448 51.3434 6.76558C50.4434 6.76448 49.6777 7.08048 49.0723 7.70588V7.70548C48.4648 8.32848 48.1594 9.10078 48.1602 9.99998C48.1594 10.8992 48.4648 11.6715 49.0723 12.2945V12.2941C49.6777 12.9195 50.4434 13.2348 51.3434 13.234C52.243 13.2348 53.0086 12.9195 53.6152 12.2941L53.5434 12.2246Z" fill="white"/>
<path d="M58.3084 13.134C57.4256 13.134 56.6854 12.8352 56.0877 12.2371C55.4889 11.6395 55.1912 10.8937 55.1912 10C55.1912 9.10625 55.4889 8.36055 56.0877 7.76295C56.6854 7.16485 57.4256 6.86565 58.3084 6.86565C59.2127 6.86565 59.9479 7.19265 60.5123 7.84615L59.9752 8.36605C59.5682 7.85745 59.0115 7.60355 58.3084 7.60355C57.6541 7.60355 57.1021 7.82425 56.6529 8.26565C56.2029 8.70705 55.9783 9.28525 55.9783 10C55.9783 10.7148 56.2029 11.2934 56.6529 11.7344C57.1021 12.1758 57.6541 12.3965 58.3084 12.3965C59.0291 12.3965 59.6432 12.1062 60.1521 11.5254L60.6881 12.0613C60.4139 12.391 60.0709 12.6523 59.6568 12.8445C59.2439 13.0375 58.7936 13.134 58.3084 13.134Z" fill="white"/>
<path d="M58.3083 13.134V13.034C57.4478 13.0328 56.7388 12.7457 56.1583 12.1664C55.5782 11.5863 55.2919 10.8715 55.2911 9.99998C55.2919 9.12848 55.5782 8.41368 56.1583 7.83358C56.7388 7.25388 57.4478 6.96678 58.3083 6.96558C59.1888 6.96718 59.8888 7.27888 60.4364 7.91128L60.5122 7.84608L60.4427 7.77418L59.9056 8.29448L59.9751 8.36598L60.0532 8.30348C59.629 7.77148 59.0349 7.50198 58.3083 7.50348C57.6313 7.50268 57.0489 7.73518 56.5829 8.19408C56.1122 8.65468 55.877 9.26478 55.8782 9.99998C55.877 10.7352 56.1122 11.3461 56.5829 11.8059C57.0489 12.2648 57.6313 12.4973 58.3083 12.4965C59.0563 12.4977 59.7044 12.1906 60.227 11.5914L60.152 11.5254L60.0813 11.5961L60.6173 12.132L60.688 12.0613L60.611 11.9977C60.3462 12.3156 60.0165 12.5672 59.6145 12.7539C59.2149 12.9406 58.7806 13.0336 58.3083 13.034V13.134V13.234C58.8067 13.234 59.2724 13.1348 59.6989 12.9352C60.1255 12.7375 60.481 12.4668 60.7649 12.1254L60.8231 12.0555L60.2228 11.4547L60.147 11.3789L60.0767 11.4594C59.5821 12.0223 59.0017 12.2953 58.3083 12.2965C57.6763 12.2953 57.1556 12.0867 56.7231 11.6629H56.7228C56.2931 11.241 56.079 10.6945 56.0782 9.99998C56.079 9.30548 56.2931 8.75978 56.7228 8.33708H56.7231C57.1556 7.91328 57.6763 7.70468 58.3083 7.70348C58.9876 7.70508 59.5067 7.94338 59.897 8.42848L59.9657 8.51448L60.5817 7.91798L60.6497 7.85228L60.588 7.78088C60.0071 7.10588 59.2364 6.76448 58.3083 6.76558C57.4028 6.76478 56.6313 7.07618 56.0169 7.69218C55.3993 8.30698 55.0899 9.08438 55.0911 9.99998C55.0899 10.9156 55.3993 11.693 56.0169 12.3082C56.6313 12.9238 57.4028 13.2348 58.3083 13.234V13.134Z" fill="white"/>
<path d="M63.8061 12.9999H63.0347V7.73701H61.3589V6.99991H65.4819V7.73701H63.8061V12.9999Z" fill="white"/>
<path d="M63.8062 13.0001V12.9001H63.1348V7.63717H61.459V7.10007H65.382V7.63717H63.7062V13.0001H63.8062V12.9001V13.0001H63.9062V7.83717H65.582V7.00007V6.90007H61.259V7.73717V7.83717H62.9348V13.1001H63.8062H63.9062V13.0001H63.8062Z" fill="white"/>
<path d="M70.7756 7.00005L68.5053 12.0613C68.1916 12.7766 67.7264 13.134 67.1061 13.134C66.9217 13.134 66.7232 13.0895 66.5104 13L66.7115 12.2875C66.8404 12.3605 66.9744 12.3965 67.1139 12.3965C67.2928 12.3965 67.4314 12.3617 67.5291 12.2922C67.6268 12.2223 67.7174 12.0945 67.8014 11.9105L68.0193 11.4324L65.9998 7.00005H66.9049L68.3881 10.4441H68.4213L69.8701 7.00005H70.7756Z" fill="white"/>
<path d="M70.7758 6.99996L70.6844 6.95896L68.4141 12.0207L68.4137 12.0215C68.1051 12.7148 67.6836 13.0305 67.1063 13.034C66.9379 13.034 66.7527 12.9934 66.5492 12.9078L66.5106 13L66.607 13.0273L66.8078 12.3148L66.7117 12.2875L66.6629 12.3746C66.8051 12.4551 66.957 12.4969 67.1141 12.4965C67.3051 12.4965 67.4652 12.4602 67.5875 12.3734C67.7078 12.2863 67.8043 12.1445 67.8926 11.9523L68.1106 11.4742L68.1293 11.4324L66.1555 7.09996H66.8395L68.3223 10.5441H68.4215H68.4879L69.9367 7.09996H70.7758V6.99996L70.6844 6.95896L70.7758 6.99996V6.89996H69.8703H69.8039L68.3289 10.4055L68.4215 10.4441V10.3441H68.3883V10.4441L68.4801 10.4047L66.9711 6.89996H66H65.8445L67.9094 11.4324L67.7106 11.8691C67.6313 12.0445 67.5461 12.1578 67.4711 12.2105C67.3981 12.2633 67.2805 12.2969 67.1141 12.2965C66.9918 12.2965 66.8766 12.2656 66.7609 12.2004L66.65 12.1379L66.4145 12.9727L66.3902 13.0578L66.4719 13.0922C66.6941 13.1855 66.9055 13.234 67.1063 13.234C67.7691 13.2371 68.2785 12.8379 68.5969 12.1016L68.5965 12.1023L70.9301 6.89996H70.7758V6.99996Z" fill="white"/>
<path d="M71.6487 12.9999V6.99991H75.9897V12.9999H75.2183V7.73701H72.419V12.9999H71.6487Z" fill="white"/>
<path d="M71.6483 13.0001H71.7483V7.10007H75.889V12.9001H75.3179V7.63717H72.3186V12.9001H71.6483V13.0001H71.7483H71.6483V13.1001H72.4186H72.5186V7.83717H75.1179V13.1001H75.9893H76.0893V6.90007H71.5483V13.1001H71.6483V13.0001Z" fill="white"/>
<path d="M77.3635 12.9999V6.99991H78.1342V9.57221H81.1342V6.99991H81.9057V12.9999H81.1342V10.2929H78.1342V12.9999H77.3635Z" fill="white"/>
<path d="M77.3634 13.0001H77.4634V7.10007H78.0341V9.67237H81.2341V7.10007H81.8056V12.9001H81.2341V10.1931H78.0341V12.9001H77.3634V13.0001H77.4634H77.3634V13.1001H78.1341H78.2341V10.3931H81.0341V13.1001H81.9056H82.0056V6.90007H81.1341H81.0341V9.47237H78.2341V6.90007H77.3634H77.2634V13.1001H77.3634V13.0001Z" fill="white"/>
<path d="M84.3562 11.7223C84.8008 12.1719 85.3437 12.3965 85.9863 12.3965C86.6289 12.3965 87.1727 12.1719 87.616 11.7223C88.0605 11.2727 88.2832 10.698 88.2832 10C88.2832 9.30205 88.0605 8.72735 87.616 8.27775C87.1727 7.82815 86.6289 7.60355 85.9863 7.60355C85.3437 7.60355 84.8008 7.82815 84.3562 8.27775C83.9133 8.72735 83.6902 9.30205 83.6902 10C83.6902 10.698 83.9133 11.2727 84.3562 11.7223ZM88.1863 12.2246C87.5969 12.8312 86.8633 13.134 85.9863 13.134C85.1094 13.134 84.3762 12.8312 83.7871 12.2246C83.1973 11.6187 82.9031 10.877 82.9031 10C82.9031 9.12305 83.1973 8.38125 83.7871 7.77545C84.3762 7.16875 85.1094 6.86565 85.9863 6.86565C86.8586 6.86565 87.5898 7.17035 88.1824 7.77935C88.7742 8.38835 89.0703 9.12855 89.0703 10C89.0703 10.877 88.7754 11.6187 88.1863 12.2246Z" fill="white"/>
<path d="M84.3563 11.7223L84.2853 11.7926C84.7462 12.2602 85.3204 12.4977 85.9864 12.4965C86.6524 12.4977 87.2278 12.2602 87.6876 11.7926C88.1509 11.3246 88.3841 10.7191 88.3833 9.99998C88.3841 9.28088 88.1509 8.67538 87.6876 8.20738C87.2278 7.73978 86.6524 7.50228 85.9864 7.50348C85.3204 7.50228 84.7462 7.73978 84.2853 8.20738C83.8228 8.67538 83.5895 9.28088 83.5903 9.99998C83.5895 10.7191 83.8228 11.3246 84.2853 11.7926L84.3563 11.7223L84.4278 11.652C84.0036 11.2203 83.7915 10.6773 83.7903 9.99998C83.7915 9.32268 84.0036 8.77968 84.4278 8.34798C84.8556 7.91638 85.3673 7.70468 85.9864 7.70348C86.6056 7.70468 87.1181 7.91638 87.545 8.34798L87.5481 8.35118L87.545 8.34798C87.9704 8.77968 88.1825 9.32268 88.1833 9.99998C88.1825 10.6773 87.9704 11.2203 87.545 11.652C87.1181 12.0836 86.6056 12.2953 85.9864 12.2965C85.3673 12.2953 84.8556 12.0836 84.4278 11.652L84.3563 11.7223ZM88.1864 12.2246L88.1149 12.1551C87.5419 12.7426 86.8403 13.0328 85.9864 13.034C85.1325 13.0328 84.431 12.7426 83.8591 12.1551L83.856 12.152L83.8591 12.1551C83.2868 11.5656 83.0044 10.8547 83.0032 9.99998C83.0044 9.14528 83.2868 8.43438 83.8591 7.84488C84.431 7.25738 85.1325 6.96678 85.9864 6.96558C86.8353 6.96678 87.5349 7.25858 88.111 7.84918C88.6853 8.44138 88.9696 9.15118 88.9704 9.99998C88.9696 10.8547 88.686 11.5656 88.1149 12.1551L88.1864 12.2246L88.2583 12.2941C88.8649 11.6715 89.1712 10.8992 89.1704 9.99998C89.1712 9.10588 88.8638 8.33518 88.2544 7.70978C87.645 7.08198 86.8817 6.76448 85.9864 6.76558C85.0864 6.76448 84.3212 7.08048 83.7153 7.70588V7.70548C83.1079 8.32848 82.8024 9.10078 82.8032 9.99998C82.8024 10.8992 83.1079 11.6715 83.7153 12.2945V12.2941C84.3212 12.9195 85.0864 13.2348 85.9864 13.234C86.8864 13.2348 87.6517 12.9195 88.2583 12.2941L88.1864 12.2246Z" fill="white"/>
<path d="M92.9931 12.2628H94.5441C94.8401 12.2628 95.0801 12.1593 95.2651 11.9519C95.4491 11.746 95.5411 11.5194 95.5411 11.2733C95.5411 11.0276 95.4461 10.803 95.2561 10.5991C95.0671 10.3952 94.8172 10.2929 94.5102 10.2929H92.9931V12.2628ZM92.9931 9.57221H94.3931C94.6841 9.57221 94.9171 9.47651 95.0931 9.28311C95.2691 9.09051 95.3571 8.88001 95.3571 8.65071C95.3571 8.42181 95.2721 8.21161 95.1011 8.02261C94.9311 7.83231 94.7061 7.73701 94.4271 7.73701H92.9931V9.57221ZM92.2231 12.9999V6.99991H94.3931C94.8621 6.99991 95.2691 7.15541 95.6121 7.46471C95.9561 7.77531 96.1281 8.16471 96.1281 8.63391C96.1281 8.91861 96.0541 9.17021 95.9051 9.38821C95.7581 9.60611 95.5611 9.77101 95.3151 9.88271V9.91591C95.6101 10.0163 95.8541 10.1897 96.0441 10.4354C96.2331 10.6815 96.3291 10.9667 96.3291 11.2905C96.3291 11.7819 96.1491 12.1897 95.7881 12.5136C95.4281 12.8378 95.0022 12.9999 94.5102 12.9999H92.2231Z" fill="white"/>
<path d="M92.993 12.263V12.363H94.544C94.863 12.3642 95.138 12.247 95.339 12.0188C95.537 11.7989 95.642 11.545 95.641 11.2735C95.642 11.0017 95.533 10.7489 95.329 10.531C95.122 10.3063 94.8391 10.1919 94.5101 10.1931H92.893V12.363H92.993V12.263H93.093V10.3931H94.5101C94.7961 10.3942 95.0111 10.4849 95.1831 10.6673C95.3591 10.8579 95.44 11.0544 95.441 11.2735C95.44 11.4942 95.361 11.6935 95.19 11.8856C95.023 12.0716 94.817 12.1614 94.544 12.163H92.993V12.263H93.093H92.993ZM92.993 9.57236V9.67236H94.393C94.705 9.67346 94.973 9.56566 95.167 9.35046V9.35086C95.356 9.14456 95.457 8.90626 95.457 8.65086C95.457 8.39696 95.36 8.15946 95.175 7.95556V7.95596C94.988 7.74416 94.728 7.63596 94.427 7.63717H92.893V9.67236H92.993V9.57236H93.093V7.83716H94.427C94.684 7.83877 94.874 7.92076 95.026 8.08916L95.027 8.08987L95.026 8.08956C95.183 8.26456 95.256 8.44736 95.257 8.65086C95.256 8.85356 95.181 9.03717 95.019 9.21567V9.21607C94.861 9.38757 94.662 9.47116 94.393 9.47236H92.993V9.57236H93.093H92.993ZM92.223 13.0001H92.323V7.10006H94.393C94.84 7.10086 95.2181 7.24536 95.5451 7.53916C95.8701 7.83366 96.027 8.18956 96.028 8.63406C96.028 8.90166 95.959 9.13097 95.823 9.33207C95.685 9.53527 95.504 9.68676 95.273 9.79186L95.215 9.81846V9.91606V9.98756L95.282 10.0106C95.561 10.106 95.786 10.2661 95.965 10.497L95.966 10.4981L95.965 10.4966C96.141 10.7263 96.229 10.9864 96.229 11.2907C96.228 11.7579 96.0621 12.1317 95.7211 12.4396C95.3771 12.7478 94.9801 12.8993 94.5101 12.9001H92.223V13.0001H92.323H92.223V13.1001H94.5101C95.0241 13.1009 95.478 12.9282 95.855 12.588C96.235 12.2485 96.43 11.8067 96.429 11.2907C96.43 10.9474 96.326 10.6372 96.123 10.3747L96.1221 10.3735L96.123 10.3743C95.922 10.1142 95.6601 9.92736 95.3471 9.82156L95.315 9.91606H95.415V9.88286H95.315L95.356 9.97387C95.617 9.85557 95.831 9.67777 95.988 9.44417V9.44457C96.148 9.20987 96.228 8.93596 96.228 8.63406C96.229 8.14066 96.043 7.71727 95.679 7.39067L95.677 7.38876L95.679 7.39067C95.319 7.06527 94.884 6.89926 94.393 6.90006H92.123V13.1001H92.223V13.0001Z" fill="white"/>
<defs>
<linearGradient id="paint0_linear" x1="21.9289" y1="8.70962" x2="5.14641" y2="25.4921" gradientUnits="userSpaceOnUse">
<stop stop-color="#00A0FF"/>
<stop offset="0.00657445" stop-color="#00A1FF"/>
<stop offset="0.2601" stop-color="#00BEFF"/>
<stop offset="0.5122" stop-color="#00D2FF"/>
<stop offset="0.7604" stop-color="#00DFFF"/>
<stop offset="1" stop-color="#00E3FF"/>
</linearGradient>
<linearGradient id="paint1_linear" x1="33.9636" y1="20.0014" x2="9.76659" y2="20.0014" gradientUnits="userSpaceOnUse">
<stop stop-color="#FFE000"/>
<stop offset="0.4087" stop-color="#FFBD00"/>
<stop offset="0.7754" stop-color="#FFA500"/>
<stop offset="1" stop-color="#FF9C00"/>
</linearGradient>
<linearGradient id="paint2_linear" x1="24.956" y1="22.2961" x2="2.1977" y2="45.0544" gradientUnits="userSpaceOnUse">
<stop stop-color="#FF3A44"/>
<stop offset="1" stop-color="#C31162"/>
</linearGradient>
<linearGradient id="paint3_linear" x1="7.4264" y1="0.176197" x2="17.5889" y2="10.3387" gradientUnits="userSpaceOnUse">
<stop stop-color="#32A071"/>
<stop offset="0.0685" stop-color="#2DA771"/>
<stop offset="0.4762" stop-color="#15CF74"/>
<stop offset="0.8009" stop-color="#06E775"/>
<stop offset="1" stop-color="#00F076"/>
</linearGradient>
<linearGradient id="paint4_linear" x1="33.8808" y1="20.0532" x2="9.97753" y2="20.0532" gradientUnits="userSpaceOnUse">
<stop stop-color="#CCB300"/>
<stop offset="0.4087" stop-color="#CC9700"/>
<stop offset="0.7754" stop-color="#CC8400"/>
<stop offset="1" stop-color="#CC7D00"/>
</linearGradient>
<linearGradient id="paint5_linear" x1="24.956" y1="22.2961" x2="2.19765" y2="45.0544" gradientUnits="userSpaceOnUse">
<stop stop-color="#CC2E36"/>
<stop offset="1" stop-color="#9C0E4E"/>
</linearGradient>
<linearGradient id="paint6_linear" x1="21.9289" y1="8.70964" x2="5.1464" y2="25.4921" gradientUnits="userSpaceOnUse">
<stop stop-color="#008DE0"/>
<stop offset="0.00657445" stop-color="#008DE0"/>
<stop offset="0.2601" stop-color="#00A7E0"/>
<stop offset="0.5122" stop-color="#00B8E0"/>
<stop offset="0.7604" stop-color="#00C4E0"/>
<stop offset="1" stop-color="#00C7E0"/>
</linearGradient>
<linearGradient id="paint7_linear" x1="24.9651" y1="22.2897" x2="2.1926" y2="45.0625" gradientUnits="userSpaceOnUse">
<stop stop-color="#E0333C"/>
<stop offset="1" stop-color="#AB0F56"/>
</linearGradient>
<linearGradient id="paint8_linear" x1="33.9632" y1="20.0014" x2="9.76622" y2="20.0014" gradientUnits="userSpaceOnUse">
<stop stop-color="#E0C500"/>
<stop offset="0.4087" stop-color="#E0A600"/>
<stop offset="0.7754" stop-color="#E09100"/>
<stop offset="1" stop-color="#E08900"/>
</linearGradient>
<linearGradient id="paint9_linear" x1="33.9634" y1="20.0014" x2="9.76637" y2="20.0014" gradientUnits="userSpaceOnUse">
<stop stop-color="#FFE840"/>
<stop offset="0.4087" stop-color="#FFCE40"/>
<stop offset="0.7754" stop-color="#FFBC40"/>
<stop offset="1" stop-color="#FFB540"/>
</linearGradient>
<linearGradient id="paint10_linear" x1="21.9289" y1="8.70963" x2="5.1464" y2="25.4921" gradientUnits="userSpaceOnUse">
<stop stop-color="#40B8FF"/>
<stop offset="0.00657445" stop-color="#40B9FF"/>
<stop offset="0.2601" stop-color="#40CEFF"/>
<stop offset="0.5122" stop-color="#40DDFF"/>
<stop offset="0.7604" stop-color="#40E7FF"/>
<stop offset="1" stop-color="#40EAFF"/>
</linearGradient>
<linearGradient id="paint11_linear" x1="7.42625" y1="0.176278" x2="17.5888" y2="10.3388" gradientUnits="userSpaceOnUse">
<stop stop-color="#65B895"/>
<stop offset="0.0685" stop-color="#62BD95"/>
<stop offset="0.4762" stop-color="#50DB97"/>
<stop offset="0.8009" stop-color="#44ED98"/>
<stop offset="1" stop-color="#40F498"/>
</linearGradient>
</defs>
</svg>
