<svg width="120" height="40" viewBox="0 0 120 40" fill="none" xmlns="http://www.w3.org/2000/svg">
<path d="M110.264 -7.3291e-06H9.66359C9.29689 -7.3291e-06 8.93459 -7.32904e-06 8.56886 0.00199267C8.26271 0.00399267 7.959 0.00980267 7.64991 0.0146927C6.97842 0.0225945 6.30851 0.0816689 5.64601 0.191403C4.98443 0.303525 4.34358 0.514908 3.74513 0.818403C3.14741 1.12446 2.60125 1.52216 2.12648 1.99706C1.64921 2.47063 1.25137 3.01801 0.948256 3.61815C0.644307 4.2171 0.433547 4.85893 0.323256 5.52147C0.211917 6.18318 0.152005 6.85251 0.144056 7.52347C0.134776 7.83007 0.133796 8.13769 0.128906 8.44433V31.5586C0.133796 31.8691 0.134776 32.1699 0.144056 32.4805C0.152007 33.1514 0.21192 33.8207 0.323256 34.4824C0.433242 35.1453 0.644014 35.7875 0.948256 36.3867C1.25123 36.9849 1.64913 37.5301 2.12648 38.001C2.59945 38.478 3.14596 38.876 3.74513 39.1797C4.34357 39.484 4.98436 39.6966 5.64601 39.8105C6.30863 39.9193 6.97846 39.9784 7.64991 39.9873C7.959 39.9941 8.26271 39.998 8.56886 39.998C8.93458 40 9.29691 40 9.66359 40H110.264C110.623 40 110.988 40 111.348 39.998C111.652 39.998 111.965 39.9941 112.27 39.9873C112.94 39.9789 113.608 39.9198 114.27 39.8105C114.933 39.6958 115.576 39.4833 116.178 39.1797C116.776 38.8758 117.322 38.4778 117.795 38.001C118.271 37.5282 118.67 36.9834 118.977 36.3867C119.279 35.7871 119.487 35.1449 119.596 34.4824C119.707 33.8206 119.769 33.1515 119.781 32.4805C119.785 32.1699 119.785 31.8691 119.785 31.5586C119.793 31.1953 119.793 30.834 119.793 30.4648V9.53612C119.793 9.16991 119.793 8.80663 119.785 8.44433C119.785 8.13769 119.785 7.83007 119.781 7.52343C119.769 6.85242 119.707 6.18323 119.596 5.52143C119.487 4.85927 119.278 4.2175 118.977 3.61811C118.359 2.41519 117.38 1.43602 116.178 0.818313C115.576 0.51556 114.933 0.304233 114.27 0.191313C113.608 0.0810955 112.94 0.0220004 112.27 0.0145527C111.965 0.00967267 111.652 0.00381267 111.348 0.00186267C110.988 -0.000137329 110.623 -0.000137329 110.264 -0.000137329V-7.3291e-06Z" fill="#A6A6A6"/>
<path d="M8.57377 39.125C8.26909 39.125 7.97177 39.1211 7.66948 39.1143C7.04326 39.1061 6.41851 39.0516 5.80034 38.9512C5.22393 38.8519 4.66555 38.6673 4.1436 38.4033C3.62644 38.1415 3.15476 37.7983 2.7466 37.3867C2.33254 36.98 1.98782 36.5082 1.72609 35.9902C1.46148 35.4688 1.27836 34.9099 1.18309 34.333C1.08022 33.7131 1.02456 33.0863 1.01659 32.458C1.01025 32.2471 1.00195 31.5449 1.00195 31.5449V8.44434C1.00195 8.44434 1.01079 7.75293 1.01664 7.5498C1.02427 6.92248 1.07961 6.29665 1.18217 5.67773C1.27761 5.09925 1.46088 4.53875 1.72563 4.01563C1.9864 3.49794 2.32921 3.02586 2.74077 2.61768C3.15188 2.20562 3.62507 1.8606 4.14311 1.59521C4.66386 1.33209 5.22119 1.14873 5.79643 1.05127C6.41663 0.949836 7.04355 0.894996 7.67194 0.88721L8.57426 0.875H111.343L112.256 0.8877C112.879 0.895099 113.5 0.94945 114.114 1.05029C114.695 1.14898 115.259 1.33362 115.785 1.59814C116.823 2.13299 117.667 2.97916 118.2 4.01807C118.461 4.53758 118.641 5.09351 118.735 5.66699C118.839 6.29099 118.897 6.92174 118.909 7.5542C118.912 7.8374 118.912 8.1416 118.912 8.44434C118.92 8.81934 118.92 9.17627 118.92 9.53613V30.4648C118.92 30.8281 118.92 31.1826 118.912 31.54C118.912 31.8652 118.912 32.1631 118.908 32.4697C118.897 33.0909 118.839 33.7104 118.737 34.3232C118.644 34.9043 118.462 35.4675 118.197 35.9932C117.934 36.5056 117.591 36.9733 117.182 37.3789C116.773 37.7927 116.301 38.1379 115.782 38.4014C115.257 38.6674 114.695 38.8527 114.114 38.9512C113.496 39.0522 112.871 39.1067 112.245 39.1143C111.952 39.1211 111.646 39.125 111.348 39.125L110.264 39.127L8.57377 39.125Z" fill="black"/>
<path d="M24.8979 20.3007C24.9087 19.466 25.1304 18.6476 25.5424 17.9217C25.9544 17.1957 26.5434 16.5858 27.2545 16.1486C26.8027 15.5034 26.2068 14.9725 25.5139 14.598C24.8211 14.2234 24.0505 14.0156 23.2633 13.9909C21.5841 13.8147 19.9561 14.9958 19.1004 14.9958C18.2281 14.9958 16.9106 14.0084 15.4919 14.0376C14.5742 14.0673 13.6799 14.3341 12.896 14.8122C12.1121 15.2902 11.4654 15.9632 11.019 16.7655C9.08498 20.1139 10.5276 25.035 12.3802 27.7416C13.3071 29.0669 14.3904 30.5474 15.8078 30.4949C17.1949 30.4373 17.7129 29.6104 19.3872 29.6104C21.046 29.6104 21.532 30.4949 22.9782 30.4615C24.4666 30.4373 25.4043 29.1302 26.2987 27.7923C26.9647 26.848 27.4772 25.8043 27.8171 24.6998C26.9524 24.3341 26.2145 23.7219 25.6954 22.9396C25.1763 22.1573 24.8989 21.2395 24.8979 20.3007Z" fill="white"/>
<path d="M22.1662 12.2109C22.9778 11.2367 23.3776 9.98449 23.2808 8.72026C22.0409 8.85048 20.8957 9.44304 20.0732 10.3799C19.671 10.8375 19.363 11.37 19.1668 11.9467C18.9705 12.5235 18.8899 13.1333 18.9295 13.7413C19.5496 13.7476 20.1631 13.6132 20.7238 13.3481C21.2844 13.0831 21.7776 12.6942 22.1662 12.2109Z" fill="white"/>
<path d="M42.4314 27.1396H37.698L36.5613 30.4961H34.5564L39.0398 18.0781H41.1228L45.6062 30.4961H43.5671L42.4314 27.1396ZM38.1882 25.5908H41.9402L40.0906 20.1435H40.0389L38.1882 25.5908Z" fill="white"/>
<path d="M55.2888 25.9697C55.2888 28.7832 53.783 30.5908 51.5105 30.5908C50.9349 30.6209 50.3624 30.4883 49.8586 30.2082C49.3548 29.928 48.9401 29.5117 48.6619 29.0068H48.6189V33.4912H46.7605V21.4424H48.5594V22.9482H48.5935C48.8845 22.4458 49.3062 22.0316 49.8139 21.7497C50.3215 21.4679 50.896 21.3289 51.4763 21.3476C53.7742 21.3477 55.2888 23.1641 55.2888 25.9697ZM53.3787 25.9697C53.3787 24.1367 52.4314 22.9316 50.9861 22.9316C49.5662 22.9316 48.6111 24.1621 48.6111 25.9697C48.6111 27.7939 49.5662 29.0156 50.9861 29.0156C52.4314 29.0156 53.3787 27.8193 53.3787 25.9697Z" fill="white"/>
<path d="M65.2537 25.9697C65.2537 28.7832 63.7478 30.5908 61.4754 30.5908C60.8997 30.6209 60.3272 30.4883 59.8234 30.2082C59.3196 29.928 58.9049 29.5117 58.6267 29.0068H58.5837V33.4912H56.7253V21.4424H58.5242V22.9482H58.5583C58.8493 22.4458 59.271 22.0316 59.7787 21.7497C60.2863 21.4679 60.8608 21.3289 61.4412 21.3476C63.739 21.3476 65.2537 23.164 65.2537 25.9697ZM63.3435 25.9697C63.3435 24.1367 62.3963 22.9316 60.951 22.9316C59.531 22.9316 58.576 24.1621 58.576 25.9697C58.576 27.7939 59.531 29.0156 60.951 29.0156C62.3963 29.0156 63.3435 27.8193 63.3435 25.9697H63.3435Z" fill="white"/>
<path d="M71.8396 27.0361C71.9773 28.2676 73.1736 29.0761 74.8084 29.0761C76.3748 29.0761 77.5017 28.2675 77.5017 27.1572C77.5017 26.1933 76.822 25.6162 75.2127 25.2207L73.6033 24.833C71.323 24.2822 70.2644 23.2158 70.2644 21.4853C70.2644 19.3427 72.1316 17.871 74.783 17.871C77.407 17.871 79.2058 19.3427 79.2664 21.4853H77.3904C77.2781 20.246 76.2537 19.498 74.7566 19.498C73.2595 19.498 72.2351 20.2548 72.2351 21.3564C72.2351 22.2343 72.8894 22.7509 74.49 23.1464L75.8582 23.4823C78.406 24.0849 79.4646 25.1083 79.4646 26.9247C79.4646 29.248 77.614 30.703 74.6707 30.703C71.9167 30.703 70.0574 29.2821 69.9373 27.036L71.8396 27.0361Z" fill="white"/>
<path d="M83.4753 19.2998V21.4424H85.197V22.914H83.4753V27.9053C83.4753 28.6806 83.8201 29.042 84.5769 29.042C84.7813 29.0384 84.9853 29.0241 85.1882 28.999V30.4619C84.848 30.5254 84.5021 30.5542 84.156 30.5478C82.323 30.5478 81.6081 29.8593 81.6081 28.1035V22.914H80.2917V21.4424H81.6081V19.2998H83.4753Z" fill="white"/>
<path d="M86.1941 25.9697C86.1941 23.1211 87.8718 21.3311 90.488 21.3311C93.113 21.3311 94.783 23.1211 94.783 25.9697C94.783 28.8262 93.1218 30.6084 90.488 30.6084C87.8552 30.6084 86.1941 28.8262 86.1941 25.9697ZM92.8894 25.9697C92.8894 24.0156 91.9939 22.8623 90.488 22.8623C88.9822 22.8623 88.0876 24.0244 88.0876 25.9697C88.0876 27.9316 88.9822 29.0762 90.488 29.0762C91.9939 29.0762 92.8894 27.9316 92.8894 25.9697H92.8894Z" fill="white"/>
<path d="M96.3152 21.4424H98.0877V22.9834H98.1307C98.2506 22.5021 98.5325 22.0768 98.9291 21.7789C99.3257 21.481 99.8127 21.3287 100.308 21.3476C100.523 21.3469 100.736 21.3701 100.945 21.417V23.1552C100.675 23.0726 100.393 23.0347 100.11 23.0429C99.8401 23.032 99.571 23.0796 99.3211 23.1825C99.0713 23.2854 98.8467 23.4411 98.6627 23.639C98.4787 23.8369 98.3398 24.0722 98.2553 24.3289C98.1709 24.5856 98.143 24.8575 98.1736 25.1259V30.4961H96.3152L96.3152 21.4424Z" fill="white"/>
<path d="M109.513 27.8369C109.263 29.4804 107.663 30.6084 105.615 30.6084C102.981 30.6084 101.346 28.8437 101.346 26.0127C101.346 23.1728 102.99 21.331 105.537 21.331C108.042 21.331 109.617 23.0517 109.617 25.7969V26.4336H103.222V26.5459C103.193 26.8791 103.235 27.2147 103.345 27.5306C103.455 27.8464 103.631 28.1352 103.861 28.3778C104.092 28.6203 104.371 28.8111 104.681 28.9374C104.991 29.0637 105.324 29.1226 105.658 29.1103C106.097 29.1515 106.538 29.0498 106.915 28.8203C107.291 28.5909 107.584 28.246 107.749 27.8369L109.513 27.8369ZM103.231 25.1347H107.758C107.774 24.8352 107.729 24.5353 107.624 24.2541C107.519 23.9729 107.358 23.7164 107.149 23.5006C106.941 23.2849 106.69 23.1145 106.412 23.0003C106.135 22.8861 105.837 22.8305 105.537 22.8369C105.234 22.8351 104.934 22.8932 104.654 23.008C104.374 23.1227 104.12 23.2918 103.905 23.5054C103.691 23.7191 103.521 23.973 103.405 24.2527C103.29 24.5323 103.23 24.8321 103.231 25.1348V25.1347Z" fill="white"/>
<path d="M36.8672 11.2534H37.665C37.8024 11.2705 37.9418 11.259 38.0744 11.2195C38.2071 11.1801 38.3302 11.1136 38.4359 11.0242C38.5416 10.9349 38.6276 10.8246 38.6885 10.7003C38.7495 10.5761 38.7841 10.4405 38.79 10.3023C38.79 9.75196 38.376 9.39649 37.6738 9.39649C37.5331 9.37683 37.3899 9.38556 37.2526 9.42217C37.1153 9.45878 36.9868 9.52252 36.8745 9.60964C36.7623 9.69675 36.6686 9.80547 36.5991 9.92938C36.5296 10.0533 36.4856 10.1899 36.4697 10.3311H35.5937C35.6088 10.0748 35.6765 9.82431 35.7925 9.5953C35.9086 9.36629 36.0706 9.16362 36.2683 8.99992C36.4661 8.83621 36.6955 8.71498 36.9422 8.64375C37.1888 8.57253 37.4475 8.55285 37.7021 8.58594C38.8769 8.58594 39.7041 9.24365 39.7041 10.1904C39.7069 10.5076 39.6008 10.8161 39.4035 11.0645C39.2062 11.3129 38.9297 11.4861 38.6201 11.5552V11.6255C38.9871 11.6418 39.3327 11.8027 39.5814 12.0731C39.8301 12.3434 39.9617 12.7013 39.9473 13.0684C39.9201 13.3323 39.8405 13.5881 39.7132 13.8208C39.5859 14.0536 39.4134 14.2585 39.2059 14.4238C38.9983 14.589 38.7599 14.7111 38.5045 14.783C38.2492 14.8548 37.982 14.875 37.7188 14.8423C37.4549 14.8783 37.1866 14.8607 36.9297 14.7908C36.6728 14.7208 36.4326 14.5999 36.2235 14.4351C36.0143 14.2703 35.8405 14.0651 35.7123 13.8317C35.5842 13.5984 35.5043 13.3416 35.4775 13.0767H36.3672C36.4209 13.6475 36.9453 14.0157 37.7188 14.0157C38.4922 14.0157 38.9971 13.6021 38.9971 13.0191C38.9971 12.4278 38.5215 12.0635 37.6904 12.0635H36.8672V11.2534Z" fill="white"/>
<path d="M40.958 13.4243C40.958 12.6138 41.5625 12.1465 42.6328 12.0801L43.8525 12.0098V11.6211C43.8525 11.1455 43.5391 10.877 42.9307 10.877C42.4346 10.877 42.0918 11.0591 41.9922 11.3775H41.1318C41.2227 10.604 41.9512 10.1079 42.9727 10.1079C44.1016 10.1079 44.7383 10.6699 44.7383 11.6211V14.6978H43.8818V14.065H43.8115C43.6688 14.2919 43.4684 14.477 43.2308 14.6012C42.9932 14.7254 42.7268 14.7843 42.459 14.772C42.27 14.7916 42.0789 14.7715 41.8981 14.7128C41.7174 14.6541 41.5509 14.5581 41.4095 14.4312C41.2681 14.3042 41.1548 14.149 41.0771 13.9756C40.9993 13.8022 40.9588 13.6144 40.958 13.4243ZM43.8525 13.0396V12.6631L42.7529 12.7334C42.1328 12.7749 41.8515 12.9858 41.8515 13.3828C41.8515 13.7881 42.2031 14.0239 42.6865 14.0239C42.8282 14.0383 42.9713 14.024 43.1073 13.9819C43.2433 13.9398 43.3694 13.8708 43.4782 13.7789C43.587 13.6871 43.6762 13.5743 43.7405 13.4473C43.8048 13.3203 43.8429 13.1816 43.8525 13.0396Z" fill="white"/>
<path d="M47.0967 10.9429V14.6978H46.208V10.1948H49.1729V10.9428L47.0967 10.9429Z" fill="white"/>
<path d="M54.5586 12.4443C54.5586 13.875 53.835 14.772 52.6982 14.772C52.4192 14.791 52.1405 14.73 51.895 14.596C51.6495 14.462 51.4474 14.2606 51.3125 14.0156H51.2422V16.1948H50.3535V10.1948H51.209V10.939H51.2754C51.4127 10.6854 51.6175 10.4748 51.867 10.3303C52.1166 10.1858 52.4012 10.1131 52.6895 10.1201C53.835 10.1201 54.5586 11.0132 54.5586 12.4443ZM53.6445 12.4443C53.6445 11.4932 53.1943 10.9185 52.4414 10.9185C51.6934 10.9185 51.2256 11.5054 51.2256 12.4482C51.2256 13.3867 51.6934 13.9741 52.4375 13.9741C53.1943 13.9741 53.6445 13.3994 53.6445 12.4443Z" fill="white"/>
<path d="M55.7422 16.3106V15.5454C55.8384 15.5576 55.9353 15.5632 56.0322 15.562C56.2216 15.576 56.4094 15.5197 56.5597 15.4037C56.71 15.2877 56.8122 15.1203 56.8467 14.9336L56.9131 14.7144L55.2832 10.1948H56.251L57.3799 13.7715H57.4502L58.5752 10.1948H59.5176L57.8389 14.8838C57.4542 15.9795 57.0284 16.3311 56.1104 16.3311C56.0362 16.3311 55.8252 16.3228 55.7422 16.3106Z" fill="white"/>
<path d="M60.21 13.4199H61.0947C61.1816 13.8169 61.5537 14.0239 62.0742 14.0239C62.666 14.0239 63.0293 13.7632 63.0293 13.3579C63.0293 12.9238 62.7031 12.7168 62.0742 12.7168H61.4004V12.0264H62.0625C62.5996 12.0264 62.8731 11.8198 62.8731 11.4434C62.8731 11.1128 62.6084 10.8604 62.0625 10.8604C61.5654 10.8604 61.2022 11.0713 61.1445 11.4268H60.2881C60.3521 11.0183 60.5739 10.6513 60.9057 10.4047C61.2376 10.158 61.6529 10.0515 62.0625 10.1079C63.1328 10.1079 63.7451 10.5918 63.7451 11.3526C63.7501 11.5644 63.6822 11.7716 63.5528 11.9394C63.4234 12.1072 63.2403 12.2254 63.0342 12.2744V12.3448C63.2796 12.3764 63.5049 12.4971 63.6673 12.6838C63.8297 12.8706 63.9178 13.1105 63.915 13.3579C63.915 14.2139 63.1865 14.7803 62.0742 14.7803C61.0908 14.7803 60.292 14.3296 60.21 13.4199Z" fill="white"/>
<path d="M65.1948 14.6978V10.1948H66.0757V13.292H66.146L68.2212 10.1948H69.1021V14.6978H68.2212V11.584H68.1548L66.0757 14.6978L65.1948 14.6978Z" fill="white"/>
<path d="M73.9547 10.9429H72.5367V14.6978H71.647V10.9429H70.229V10.1949H73.9547V10.9429Z" fill="white"/>
<path d="M78.7416 13.4819C78.6205 13.8934 78.3587 14.2493 78.0019 14.4875C77.6451 14.7256 77.216 14.8308 76.7895 14.7847C76.4928 14.7925 76.198 14.7357 75.9255 14.6181C75.653 14.5006 75.4093 14.3252 75.2114 14.104C75.0135 13.8829 74.8661 13.6213 74.7794 13.3375C74.6927 13.0537 74.6688 12.7544 74.7094 12.4604C74.6699 12.1655 74.6942 11.8656 74.7807 11.5809C74.8672 11.2963 75.0138 11.0335 75.2107 10.8104C75.4075 10.5874 75.65 10.4092 75.9218 10.288C76.1935 10.1668 76.4881 10.1054 76.7856 10.1079C78.0385 10.1079 78.7953 10.9639 78.7953 12.3779V12.688H75.6156V12.7378C75.6016 12.9031 75.6222 13.0695 75.6763 13.2263C75.7303 13.3831 75.8166 13.5269 75.9296 13.6484C76.0425 13.7699 76.1796 13.8664 76.3321 13.9317C76.4845 13.9971 76.649 14.0298 76.8149 14.0278C77.0273 14.0532 77.2425 14.0149 77.4331 13.9177C77.6236 13.8204 77.781 13.6688 77.8852 13.4819L78.7416 13.4819ZM75.6156 12.0308H77.8891C77.9003 11.8797 77.8798 11.728 77.8289 11.5853C77.778 11.4426 77.6979 11.3122 77.5936 11.2023C77.4893 11.0925 77.3632 11.0057 77.2234 10.9474C77.0835 10.8892 76.9331 10.8609 76.7816 10.8643C76.6279 10.8622 76.4753 10.8909 76.3328 10.9488C76.1904 11.0067 76.061 11.0925 75.9523 11.2013C75.8436 11.31 75.7578 11.4395 75.7 11.5819C75.6422 11.7244 75.6135 11.877 75.6156 12.0308H75.6156Z" fill="white"/>
<path d="M82.5093 10.1948H84.5396C85.4204 10.1948 85.937 10.6411 85.937 11.3398C85.9384 11.5615 85.8636 11.777 85.7251 11.9501C85.5866 12.1233 85.3929 12.2436 85.1763 12.291V12.3613C85.4392 12.3779 85.6858 12.4949 85.865 12.6881C86.0442 12.8813 86.1423 13.1359 86.1392 13.3994C86.1392 14.185 85.5483 14.6977 84.5601 14.6977H82.5093V10.1948ZM83.3901 10.877V12.043H84.271C84.8081 12.043 85.0649 11.8364 85.0649 11.4556C85.0649 11.1045 84.8413 10.8769 84.3696 10.8769L83.3901 10.877ZM83.3901 12.6963V14.0156H84.4439C84.9693 14.0156 85.2505 13.7837 85.2505 13.3579C85.2505 12.9072 84.9322 12.6963 84.3325 12.6963L83.3901 12.6963Z" fill="white"/>
</svg>
