<svg id="Capa_1" xmlns="http://www.w3.org/2000/svg" viewBox="0 0 30.6 16.7"><style>.st0{fill:#b2bcc5}</style><path class="st0" d="M29.6 7.4c-.1-.1-1.5-1.9-4-3.7C22.4 1.3 18.7 0 15.2 0S8.1 1.3 4.7 3.7C2.2 5.5.8 7.3.7 7.4l-.7.9.8 1c.1.1 1.5 1.9 4 3.7 3.3 2.4 6.9 3.7 10.5 3.7 3.5 0 7.1-1.3 10.5-3.7 2.5-1.8 3.9-3.6 4-3.7l.8-.9-1-1zm-.8 1.3c-.1.1-1.4 1.8-3.8 3.5-3.1 2.3-6.5 3.5-9.9 3.5-3.3 0-6.7-1.2-9.9-3.5-2.4-1.7-3.7-3.4-3.8-3.5l-.2-.3.2-.3c.1-.1 1.4-1.8 3.8-3.5 3.1-2.3 6.5-3.5 9.9-3.5 3.3 0 6.7 1.2 9.9 3.5 2.4 1.7 3.7 3.4 3.8 3.5l.2.3-.2.3z"/><path class="st0" d="M15.2 2.7c-3.1 0-5.7 2.5-5.7 5.7s2.5 5.7 5.7 5.7 5.7-2.5 5.7-5.7-2.6-5.7-5.7-5.7zm0 10.3c-2.6 0-4.6-2.1-4.6-4.6 0-2.6 2.1-4.6 4.6-4.6 2.6 0 4.6 2.1 4.6 4.6s-2 4.6-4.6 4.6z"/><path class="st0" d="M15.2 4.9v1c1.4 0 2.5 1.1 2.5 2.5h1c0-2-1.6-3.5-3.5-3.5z"/></svg>