<svg width="117" height="40" viewBox="0 0 117 40" fill="none" xmlns="http://www.w3.org/2000/svg"><rect width="117" height="40" rx="8" fill="#333"/><path d="M43.342 27.923c-.462.14-.924.21-1.386.21-1.862 0-2.968-1.414-2.968-3.948 0-2.268.966-3.948 2.968-3.948.784 0 1.61.266 2.31.7l.448-.994a5.34 5.34 0 0 0-2.73-.77c-2.702 0-4.326 2.002-4.326 5.11 0 3.01 1.456 4.928 4.242 4.928.952 0 1.932-.182 2.716-.504V23.96h-1.274v3.962zm6.009 1.316c2.058 0 3.22-1.498 3.22-3.794 0-2.268-1.12-3.668-3.108-3.668-2.058 0-3.234 1.498-3.234 3.808 0 2.254 1.12 3.654 3.122 3.654zm.07-1.008c-1.33 0-1.904-1.148-1.904-2.8 0-1.554.616-2.66 1.862-2.66 1.33 0 1.904 1.162 1.904 2.814 0 1.554-.602 2.646-1.862 2.646zm7.45 1.008c2.057 0 3.22-1.498 3.22-3.794 0-2.268-1.12-3.668-3.109-3.668-2.058 0-3.234 1.498-3.234 3.808 0 2.254 1.12 3.654 3.122 3.654zm.07-1.008c-1.33 0-1.905-1.148-1.905-2.8 0-1.554.616-2.66 1.862-2.66 1.33 0 1.904 1.162 1.904 2.814 0 1.554-.602 2.646-1.862 2.646zm8.96.756c0 1.68-.531 2.128-1.96 2.128-.56 0-1.19-.028-1.75-.07l-.041.91c.644.126 1.344.168 1.862.168 2.24 0 3.122-.966 3.122-3.206v-6.678a8.87 8.87 0 0 0-2.52-.406c-2.324 0-3.318 1.764-3.318 3.864 0 1.876.714 3.444 2.492 3.444.84 0 1.47-.336 2.114-1.092v.938zm0-2.114c-.713.952-1.217 1.26-1.861 1.26-1.162 0-1.456-1.26-1.456-2.534 0-1.75.63-2.8 1.918-2.8.532 0 1.008.112 1.4.28v3.794zm5.478 1.288h-.49c-.406 0-.532-.294-.532-.77v-8.82h-1.218v9.114c0 1.12.602 1.484 1.414 1.484.322 0 .63-.042.826-.098v-.91zm6.215-.252a6.703 6.703 0 0 1-2.072.322c-1.512 0-1.988-.966-1.988-2.562h4.396c0-.224.014-.56.014-.7 0-1.876-.784-3.192-2.645-3.192-1.975 0-3.053 1.456-3.053 3.766 0 2.45.995 3.696 3.08 3.696a7.44 7.44 0 0 0 2.423-.392l-.154-.938zM73.522 24.8c.041-1.008.531-2.1 1.707-2.1.995 0 1.526.812 1.485 2.1H73.52zm10.881 4.27v-3.752h1.106c1.988 0 3.15-1.19 3.15-3.15 0-1.442-.77-2.45-2.002-2.758a5.038 5.038 0 0 0-1.162-.112h-2.366v9.772h1.274zm0-4.774V20.32h.994c.266 0 .56.014.812.098.686.196 1.092.924 1.092 1.834 0 1.232-.574 2.044-1.708 2.044h-1.19zm8.073 3.864h-.49c-.406 0-.532-.294-.532-.77v-8.82h-1.218v9.114c0 1.12.602 1.484 1.414 1.484.322 0 .63-.042.826-.098v-.91zm6.13.91v-4.942c0-1.302-.63-2.352-2.491-2.352-.798 0-1.638.168-2.31.448l.238.938c.602-.266 1.274-.42 1.876-.42 1.12 0 1.484.532 1.484 1.624v.56h-1.036c-1.806 0-3.038.7-3.038 2.226 0 1.33.84 2.086 2.17 2.086.868 0 1.498-.378 2.058-.938l.098.77h.952zm-1.203-1.68c-.504.518-.994.896-1.666.896-.756 0-1.148-.462-1.148-1.19 0-.826.56-1.302 1.722-1.302h1.092v1.596zm2.415 4.606c.224.07.504.126.812.126.994 0 1.68-.644 2.716-3.052.7-1.596 1.414-3.92 2.17-7.14h-1.218a44.268 44.268 0 0 1-1.204 4.83c-.098.322-.21.686-.308 1.022h-.014c-.098-.322-.196-.7-.308-1.022a53.276 53.276 0 0 1-1.4-4.83h-1.302c.602 2.52 1.526 5.152 2.338 7.154-.686 1.596-1.064 2.002-1.54 2.002h-.7l-.042.91zM14.564 9.346a1.551 1.551 0 0 0-1.602-.083l8.642 9.435 2.825-3.092-9.865-6.26zm-2.396.79c-.11.252-.168.531-.168.82v17.26c0 .288.059.564.17.81l8.638-9.456-8.64-9.434zm9.437 10.304l-8.628 9.445c.229.115.472.166.716.166.3 0 .6-.078.871-.256l9.867-6.269-2.826-3.086zm6.581-2.45a.161.161 0 0 0-.01-.007l-2.74-1.738-3.036 3.323 3.039 3.318 2.747-1.745c.51-.337.814-.926.814-1.576s-.304-1.239-.814-1.576zm14.344-3.655h-2.98c.49-.74.76-1.92 1.12-5.48h1.86v5.48zm1.8 2.48v-2.48h-.9v-6.23h-3.59c-.4 4.36-.69 5.44-1.26 6.23H38v2.48h.8v-1.73h4.73v1.73h.8zm2.775-1.61c1.47 0 2.3-1.07 2.3-2.71 0-1.62-.8-2.62-2.22-2.62-1.47 0-2.31 1.07-2.31 2.72 0 1.61.8 2.61 2.23 2.61zm.05-.72c-.95 0-1.36-.82-1.36-2 0-1.11.44-1.9 1.33-1.9.95 0 1.36.83 1.36 2.01 0 1.11-.43 1.89-1.33 1.89zm6.341-.25c-.32.15-.62.21-.99.21-.89 0-1.34-.63-1.34-1.91 0-1.14.4-1.92 1.33-1.92.33 0 .65.09.93.21l.2-.66c-.36-.19-.77-.27-1.18-.27-1.31 0-2.2.97-2.2 2.73 0 1.55.65 2.56 2.11 2.56.39 0 .83-.07 1.29-.28l-.15-.67zm2.761.85v-4.36h1.36v-.74h-3.59v.74h1.36v4.36h.87zm1.7 2.09c.16.05.36.09.58.09.71 0 1.2-.46 1.94-2.18.5-1.14 1.01-2.8 1.55-5.1h-.87a31.62 31.62 0 0 1-.86 3.45c-.07.23-.15.49-.22.73h-.01c-.07-.23-.14-.5-.22-.73-.37-1.1-.71-2.22-1-3.45h-.93c.43 1.8 1.09 3.68 1.67 5.11-.49 1.14-.76 1.43-1.1 1.43h-.5l-.03.65zm8.932-2.09v-5.1h-3.95v5.1h.87v-4.37h2.2v4.37h.88zm5.39 0v-5.1h-.88v2.05h-2.2v-2.05h-.87v5.1h.87v-2.33h2.2v2.33h.88zm3.371.12c1.47 0 2.3-1.07 2.3-2.71 0-1.62-.8-2.62-2.22-2.62-1.47 0-2.31 1.07-2.31 2.72 0 1.61.8 2.61 2.23 2.61zm.05-.72c-.95 0-1.36-.82-1.36-2 0-1.11.44-1.9 1.33-1.9.95 0 1.36.83 1.36 2.01 0 1.11-.43 1.89-1.33 1.89zm5.823.6c.59.04 1.17.07 1.72.07 1.28 0 2.05-.55 2.05-1.57 0-.66-.43-1.13-1.06-1.23.49-.16.8-.57.8-1.13 0-.8-.56-1.3-1.92-1.3-.51 0-1.05.02-1.59.06v5.1zm.86-2.94v-1.56c.22-.02.43-.03.66-.03.77 0 1.09.29 1.09.78 0 .48-.27.81-.95.81h-.8zm.79.59c.82 0 1.2.34 1.2.9 0 .58-.42.88-1.06.88-.29 0-.61-.01-.93-.04v-1.74h.79z" fill="#fff"/></svg>