<svg width="140" height="36" viewBox="0 0 140 36" fill="none" xmlns="http://www.w3.org/2000/svg"><path d="M12.44.76c-2.585 0-5.69 2.485-8.206 6.66C1.553 11.784 0 17.132 0 21.8c0 6.85 3.833 13.722 12.44 13.722 8.608 0 12.442-6.873 12.442-13.722 0-4.668-1.553-10.04-4.234-14.356C18.132 3.246 15.028.76 12.441.76zm67.19 10.226h8.702v22.636h9.336V10.986h8.702V2.612H79.63v8.374zm46.683 0H140V2.612h-13.687c-12.582 0-19.285 6.24-19.285 15.529s6.726 15.528 19.285 15.528H140v-8.397h-13.687c-5.833 0-9.619-2.088-9.619-7.131s3.786-7.155 9.619-7.155zm-65.661-8.35l-4.986 18.53-4.986-18.53H34.194v31.057h9.337V8.406l6.797 25.24h10.7l6.797-25.263v25.263h9.336V2.636h-16.51z" fill="#E30613"/></svg>