<svg width="58" height="58" viewBox="0 0 58 58" fill="none" xmlns="http://www.w3.org/2000/svg"><path d="M39.25 31.729a13.5 13.5 0 0 1-7.521 7.52l-21.63 8.652 8.652-21.63a13.5 13.5 0 0 1 7.52-7.52l21.63-8.653-8.652 21.63z" stroke="#999"/><path d="M32.2 32.164l-.004.003a4.5 4.5 0 1 1-6.361-6.367l.004-.003.015-.015.068-.065.004-.004a4.51 4.51 0 0 1 1.13-.772l.016-.008.015-.01c1.714-.981 4.528-2.148 6.94-3.078a146.545 146.545 0 0 1 3.383-1.255l-.108.3c-.284.792-.685 1.884-1.147 3.084-.93 2.412-2.097 5.226-3.079 6.94l-.009.015-.008.016a4.51 4.51 0 0 1-.77 1.127l-.005.004a2.066 2.066 0 0 1-.066.07l-.018.018z" stroke="#999"/><circle cx="29" cy="29" r="2" fill="#999"/></svg>